<svg width="22" height="22" viewBox="0 0 22 22" fill="none" xmlns="http://www.w3.org/2000/svg">
<g clip-path="url(#clip0_11798_677)">
<path fill-rule="evenodd" clip-rule="evenodd" d="M20.7345 4.11477C20.9823 4.25383 21.1357 4.51582 21.1357 4.79994V13.5999C21.1357 13.8721 20.9948 14.1249 20.7633 14.2681L8.96334 21.5681C8.72218 21.7173 8.41934 21.725 8.17094 21.5882L1.27094 17.7882C1.02008 17.65 0.864258 17.3863 0.864258 17.0999V8.29994C0.864258 8.02363 1.00939 7.76763 1.24648 7.62574C1.48358 7.48384 1.77777 7.47692 2.02128 7.60749L8.52478 11.0949L19.9407 4.12922C20.1833 3.98123 20.4868 3.97571 20.7345 4.11477ZM7.76426 12.4702L2.43569 9.61281V16.6357L7.76426 19.5702V12.4702ZM9.33569 19.4899L19.5643 13.1621V6.19978L9.33569 12.4409V19.4899Z" fill="#AEAC99"/>
<path fill-rule="evenodd" clip-rule="evenodd" d="M13.1425 0.328271C13.3844 0.181529 13.6864 0.176126 13.9334 0.314125L20.7334 4.11412C20.9772 4.25036 21.1303 4.50576 21.1357 4.78497C21.1364 4.82366 21.1343 4.862 21.1295 4.89973C21.1336 4.93257 21.1358 4.96604 21.1358 5.00001V13.1C21.1358 13.5339 20.784 13.8857 20.3501 13.8857C19.9162 13.8857 19.5644 13.5339 19.5644 13.1V6.19986L17.2358 7.62068V16C17.2358 16.4339 16.884 16.7857 16.4501 16.7857C16.0162 16.7857 15.6644 16.4339 15.6644 16V8.57952L13.2358 10.0614V18.4C13.2358 18.8339 12.884 19.1857 12.4501 19.1857C12.0161 19.1857 11.6644 18.8339 11.6644 18.4V11.0202L9.3358 12.441V20.2C9.3358 20.6339 8.98403 20.9857 8.55009 20.9857C8.11615 20.9857 7.76437 20.6339 7.76437 20.2V12C7.76437 11.7261 7.90702 11.472 8.14084 11.3293L18.7928 4.82981L13.5663 1.90917L5.05766 7.07175C4.68667 7.29684 4.20344 7.17857 3.97835 6.80758C3.75325 6.43659 3.87152 5.95337 4.24252 5.72827L13.1425 0.328271Z" fill="#AEAC99"/>
</g>
<defs>
<clipPath id="clip0_11798_677">
<rect width="22" height="22" fill="white"/>
</clipPath>
</defs>
</svg>
