<svg width="22" height="22" viewBox="0 0 22 22" fill="none" xmlns="http://www.w3.org/2000/svg">
<path fill-rule="evenodd" clip-rule="evenodd" d="M0.214355 9.61903C0.214355 9.18509 0.566132 8.83331 1.00007 8.83331H6.71436C7.14829 8.83331 7.50007 9.18509 7.50007 9.61903V20.0952C7.50007 20.5292 7.14829 20.8809 6.71436 20.8809H1.00007C0.566132 20.8809 0.214355 20.5292 0.214355 20.0952V9.61903ZM1.78578 10.4047V19.3095H5.92864V10.4047H1.78578Z" fill="#AEAC99"/>
<path fill-rule="evenodd" clip-rule="evenodd" d="M5.92871 1.99998C5.92871 1.56604 6.28049 1.21426 6.71443 1.21426H12.4287C12.8626 1.21426 13.2144 1.56604 13.2144 1.99998V14.3809C13.2144 14.8149 12.8626 15.1666 12.4287 15.1666H6.71443C6.28049 15.1666 5.92871 14.8149 5.92871 14.3809V1.99998ZM7.50014 2.78569V13.5952H11.643V2.78569H7.50014Z" fill="#AEAC99"/>
<path fill-rule="evenodd" clip-rule="evenodd" d="M5.92871 14.3809C5.92871 13.947 6.28049 13.5952 6.71443 13.5952H17.1906C17.6246 13.5952 17.9763 13.947 17.9763 14.3809V20.0952C17.9763 20.5292 17.6246 20.8809 17.1906 20.8809H6.71443C6.28049 20.8809 5.92871 20.5292 5.92871 20.0952V14.3809ZM7.50014 15.1666V19.3095H16.4049V15.1666H7.50014Z" fill="#AEAC99"/>
<path fill-rule="evenodd" clip-rule="evenodd" d="M15.4523 8.66663C15.4523 8.2327 15.8041 7.88092 16.238 7.88092H21C21.4339 7.88092 21.7857 8.2327 21.7857 8.66663V14.3809C21.7857 14.8149 21.4339 15.1666 21 15.1666H11.4761C11.0422 15.1666 10.6904 14.8149 10.6904 14.3809C10.6904 13.947 11.0422 13.5952 11.4761 13.5952H20.2142V9.45235H16.238C15.8041 9.45235 15.4523 9.10057 15.4523 8.66663Z" fill="#AEAC99"/>
</svg>
