<svg width="22" height="22" viewBox="0 0 22 22" fill="none" xmlns="http://www.w3.org/2000/svg">
<path fill-rule="evenodd" clip-rule="evenodd" d="M14.0853 1.00001C14.0853 0.566071 14.4371 0.214294 14.871 0.214294H21.0001C21.434 0.214294 21.7858 0.566071 21.7858 1.00001V2.26985C21.7858 2.70379 21.434 3.05556 21.0001 3.05556C20.5661 3.05556 20.2144 2.70379 20.2144 2.26985V1.78572H15.6568V20.2143H20.2144V5.86773C20.2144 5.4338 20.5661 5.08202 21.0001 5.08202C21.434 5.08202 21.7858 5.4338 21.7858 5.86773V21C21.7858 21.4339 21.434 21.7857 21.0001 21.7857H14.871C14.4371 21.7857 14.0853 21.4339 14.0853 21V1.00001ZM6.26936 4.36176L5.62373 4.80953L4.9811 4.35746C5.12877 4.14753 5.36968 4.02297 5.62635 4.02382C5.88302 4.02468 6.12308 4.15085 6.26936 4.36176ZM5.61818 6.22017C5.25114 6.7765 4.76515 7.53399 4.25514 8.38725C4.0325 8.75973 3.55007 8.88119 3.1776 8.65856C2.80513 8.43592 2.68366 7.95349 2.90629 7.58102C3.45159 6.66873 3.96907 5.86466 4.35018 5.28867C4.54088 5.00047 4.69777 4.76885 4.80736 4.60876C4.86217 4.5287 4.90517 4.46649 4.93468 4.42399L4.96863 4.37525L4.97763 4.3624L4.9811 4.35746C4.98112 4.35742 4.9811 4.35746 5.62373 4.80953C6.26936 4.36176 6.26928 4.36164 6.26936 4.36176L6.27347 4.3677L6.28417 4.38321L6.32445 4.44198C6.35942 4.49317 6.41026 4.56801 6.4747 4.66398C6.60356 4.85588 6.78695 5.13249 7.00672 5.47367C7.44579 6.15532 8.03232 7.09823 8.61999 8.14059C9.20631 9.18055 9.80131 10.3328 10.2519 11.4309C10.6935 12.5074 11.0331 13.6176 11.0331 14.545C11.0331 17.5304 8.62641 19.881 5.62373 19.881C2.62104 19.881 0.214355 17.5304 0.214355 14.545C0.214355 13.5573 0.467568 12.6044 0.917344 11.4978C1.08074 11.0958 1.53908 10.9024 1.94108 11.0658C2.34308 11.2292 2.53651 11.6875 2.37312 12.0895C1.96268 13.0993 1.78578 13.8396 1.78578 14.545C1.78578 16.6389 3.46512 18.3095 5.62373 18.3095C7.78233 18.3095 9.46167 16.6389 9.46167 14.545C9.46167 13.938 9.22331 13.064 8.79802 12.0274C8.38162 11.0125 7.82072 9.92264 7.25112 8.91234C6.68288 7.90443 6.11349 6.98888 5.68563 6.32463C5.66273 6.28907 5.64023 6.25424 5.61818 6.22017Z" fill="#AEAC99"/>
<path fill-rule="evenodd" clip-rule="evenodd" d="M14.4698 6.90803L20.4698 1.42023L21.5304 2.57979L15.5304 8.06759L14.4698 6.90803ZM14.4641 13.1694L20.4641 7.57183L21.5361 8.72086L15.5361 14.3184L14.4641 13.1694ZM14.4641 19.4255L20.4641 13.8279L21.5361 14.977L15.5361 20.5745L14.4641 19.4255Z" fill="#AEAC99"/>
</svg>
