<svg width="22" height="22" viewBox="0 0 22 22" fill="none" xmlns="http://www.w3.org/2000/svg">
<path fill-rule="evenodd" clip-rule="evenodd" d="M7.12908 8.15518C8.11411 7.56814 9.38321 7.21429 11.0001 7.21429C12.6169 7.21429 13.886 7.56814 14.8711 8.15518C15.8565 8.74249 16.5119 9.53593 16.9432 10.3435C17.786 11.9219 17.7858 13.5819 17.7858 13.9922V14C17.7858 14.4339 17.434 14.7857 17.0001 14.7857H5.00007C4.56613 14.7857 4.21436 14.4339 4.21436 14L4.21436 13.9922C4.21432 13.5819 4.21417 11.9219 5.05698 10.3435C5.48823 9.53593 6.1436 8.74249 7.12908 8.15518ZM5.82434 13.2143H16.1758C16.1151 12.6302 15.9589 11.8364 15.557 11.0837C15.2382 10.4868 14.7686 9.92344 14.0666 9.50507C13.3641 9.08643 12.3832 8.78572 11.0001 8.78572C9.61693 8.78572 8.63603 9.08643 7.93356 9.50507C7.23154 9.92344 6.76191 10.4868 6.44316 11.0837C6.04124 11.8364 5.88504 12.6302 5.82434 13.2143Z" fill="#AEAC99"/>
<path fill-rule="evenodd" clip-rule="evenodd" d="M0.214355 2.00001C0.214355 1.56607 0.566132 1.21429 1.00007 1.21429H21.0001C21.434 1.21429 21.7858 1.56607 21.7858 2.00001V20C21.7858 20.4339 21.434 20.7857 21.0001 20.7857H5.5715C5.13756 20.7857 4.78578 20.4339 4.78578 20C4.78578 19.5661 5.13756 19.2143 5.5715 19.2143H20.2144V2.78572H1.78578V20C1.78578 20.4339 1.43401 20.7857 1.00007 20.7857C0.566132 20.7857 0.214355 20.4339 0.214355 20V2.00001Z" fill="#AEAC99"/>
</svg>
