<svg width="22" height="22" viewBox="0 0 22 22" fill="none" xmlns="http://www.w3.org/2000/svg">
<path fill-rule="evenodd" clip-rule="evenodd" d="M1.21436 1.99999C1.21436 1.56606 1.56613 1.21428 2.00007 1.21428H20.4609C20.8949 1.21428 21.2467 1.56606 21.2467 1.99999V20.4609C21.2467 20.8948 20.8949 21.2466 20.4609 21.2466H5.92181C5.48787 21.2466 5.13609 20.8948 5.13609 20.4609C5.13609 20.0269 5.48787 19.6751 5.92181 19.6751H13.5535V15.1248H2.78578V20.4609C2.78578 20.8948 2.43401 21.2466 2.00007 21.2466C1.56613 21.2466 1.21436 20.8948 1.21436 20.4609V1.99999ZM2.78578 8.90745V13.5534H7.33609V8.90745H2.78578ZM2.78578 7.33602V2.78571H13.5535V7.33602H2.78578ZM8.90752 8.90745V13.5534H19.6752V8.90745H8.90752ZM15.1249 7.33602H19.6752V2.78571H15.1249V7.33602ZM19.6752 15.1248H15.1249V19.6751H19.6752V15.1248Z" fill="#A4AB00"/>
</svg>
