<svg width="22" height="22" viewBox="0 0 22 22" fill="none" xmlns="http://www.w3.org/2000/svg">
<path fill-rule="evenodd" clip-rule="evenodd" d="M11.052 1.2143C11.3373 1.2149 11.5999 1.37017 11.738 1.6199L20.2144 16.9544V6.83572H17.181C16.747 6.83572 16.3953 6.48395 16.3953 6.05001C16.3953 5.61607 16.747 5.26429 17.181 5.26429H21.0001C21.434 5.26429 21.7858 5.61607 21.7858 6.05001V20C21.7858 20.3584 21.5433 20.6713 21.1963 20.7608C20.8494 20.8503 20.4858 20.6937 20.3124 20.3801L11.0469 3.6179L8.11756 8.86429H11.0503C11.4843 8.86429 11.836 9.21607 11.836 9.65001C11.836 10.0839 11.4843 10.4357 11.0503 10.4357H7.24015L5.22811 14.0393H14.0654C14.4993 14.0393 14.8511 14.3911 14.8511 14.825C14.8511 15.2589 14.4993 15.6107 14.0654 15.6107H4.35071L2.33866 19.2143H16.4775C16.9114 19.2143 17.2632 19.5661 17.2632 20C17.2632 20.4339 16.9114 20.7857 16.4775 20.7857H1.00007C0.721377 20.7857 0.463538 20.6381 0.322461 20.3977C0.181385 20.1574 0.178183 19.8603 0.314047 19.617L5.9546 9.51474C5.98563 9.33592 6.07711 9.17783 6.20722 9.0623L10.3643 1.61697C10.5034 1.36783 10.7667 1.21369 11.052 1.2143Z" fill="#AEAC99"/>
</svg>
