<svg width="22" height="22" viewBox="0 0 22 22" fill="none" xmlns="http://www.w3.org/2000/svg">
<path fill-rule="evenodd" clip-rule="evenodd" d="M2.27002 2.23228C1.93138 2.49477 1.78578 2.80237 1.78578 3.08093V16.9191C1.78578 17.1976 1.93138 17.5052 2.27002 17.7677C2.6089 18.0304 3.10763 18.2143 3.68463 18.2143H7.44302C7.87696 18.2143 8.22874 18.5661 8.22874 19C8.22874 19.4339 7.87696 19.7857 7.44302 19.7857H3.68463C2.78513 19.7857 1.94158 19.5014 1.3073 19.0097C0.672783 18.5179 0.214355 17.785 0.214355 16.9191V3.08093C0.214355 2.21499 0.672783 1.48212 1.3073 0.990283C1.94158 0.498624 2.78513 0.214294 3.68463 0.214294H18.3155C19.215 0.214294 20.0586 0.498624 20.6928 0.990283C21.3274 1.48212 21.7858 2.21499 21.7858 3.08093V16.9191C21.7858 17.785 21.3274 18.5179 20.6928 19.0097C20.0586 19.5014 19.215 19.7857 18.3155 19.7857H13.6847C13.2507 19.7857 12.8989 19.4339 12.8989 19C12.8989 18.5661 13.2507 18.2143 13.6847 18.2143H18.3155C18.8925 18.2143 19.3912 18.0304 19.7301 17.7677C20.0688 17.5052 20.2144 17.1976 20.2144 16.9191V3.08093C20.2144 2.80237 20.0688 2.49477 19.7301 2.23228C19.3912 1.9696 18.8925 1.78572 18.3155 1.78572H3.68463C3.10763 1.78572 2.6089 1.9696 2.27002 2.23228Z" fill="#AEAC99"/>
<path fill-rule="evenodd" clip-rule="evenodd" d="M11.0001 10.2143C11.434 10.2143 11.7858 10.5661 11.7858 11V15.022H13.0001C13.434 15.022 13.7858 15.3738 13.7858 15.8077V21C13.7858 21.4339 13.434 21.7857 13.0001 21.7857C12.5661 21.7857 12.2144 21.4339 12.2144 21V16.5934H11.0001C10.5661 16.5934 10.2144 16.2416 10.2144 15.8077V11C10.2144 10.5661 10.5661 10.2143 11.0001 10.2143Z" fill="#AEAC99"/>
<path fill-rule="evenodd" clip-rule="evenodd" d="M10.9501 3.51434C11.2338 3.51434 11.4955 3.66728 11.6347 3.91448L16.5347 12.6145C16.6717 12.8578 16.6694 13.1555 16.5285 13.3965C16.3876 13.6376 16.1293 13.7858 15.8501 13.7858H6.05012C5.77091 13.7858 5.51267 13.6376 5.37177 13.3965C5.23088 13.1555 5.2285 12.8578 5.36552 12.6145L10.2655 3.91448C10.4047 3.66729 10.6664 3.51434 10.9501 3.51434ZM10.9501 5.90115L7.39441 12.2143H14.5058L10.9501 5.90115Z" fill="#AEAC99"/>
</svg>
