<svg width="22" height="22" viewBox="0 0 22 22" fill="none" xmlns="http://www.w3.org/2000/svg">
<g clip-path="url(#clip0_11736_270)">
<path d="M12.1307 0C13.3681 0.00329992 13.9962 0.00989977 14.5385 0.0252994L14.7519 0.0329992C14.9983 0.041799 15.2414 0.0527987 15.5351 0.0659984C16.7055 0.120997 17.504 0.305793 18.2047 0.577487C18.9307 0.85688 19.5423 1.23527 20.1539 1.84576C20.7132 2.39563 21.146 3.06078 21.4221 3.79491C21.6938 4.49559 21.8786 5.29418 21.9336 6.46565C21.9468 6.75824 21.9578 7.00134 21.9666 7.24883L21.9732 7.46223C21.9897 8.00341 21.9963 8.6315 21.9985 9.86897L21.9996 10.6896V12.1305C22.0023 12.9328 21.9939 13.7352 21.9743 14.5373L21.9677 14.7507C21.9589 14.9981 21.9479 15.2412 21.9347 15.5338C21.8797 16.7053 21.6927 17.5028 21.4221 18.2046C21.1468 18.9391 20.7139 19.6044 20.1539 20.1537C19.6038 20.7129 18.9387 21.1456 18.2047 21.422C17.504 21.6937 16.7055 21.8785 15.5351 21.9335C15.2741 21.9458 15.013 21.9568 14.7519 21.9665L14.5385 21.9731C13.9962 21.9885 13.3681 21.9962 12.1307 21.9984L11.3101 21.9995H9.87022C9.06752 22.0023 8.26483 21.9938 7.46237 21.9742L7.24898 21.9676C6.98785 21.9577 6.72679 21.9463 6.4658 21.9335C5.29542 21.8785 4.49684 21.6937 3.79506 21.422C3.06101 21.1463 2.39613 20.7134 1.847 20.1537C1.28717 19.6041 0.853973 18.9389 0.577633 18.2046C0.305939 17.5039 0.121144 16.7053 0.0661448 15.5338C0.0538898 15.2728 0.0428899 15.0118 0.0331456 14.7507L0.0276459 14.5373C0.00737559 13.7352 -0.00179184 12.9329 0.000146405 12.1305V9.86897C-0.00292359 9.06665 0.00514375 8.26432 0.0243459 7.46223L0.0320457 7.24883C0.0408455 7.00134 0.0518452 6.75824 0.0650449 6.46565C0.120044 5.29418 0.304839 4.49669 0.576533 3.79491C0.852752 3.06002 1.28681 2.39467 1.8481 1.84576C2.39709 1.28639 3.06153 0.853566 3.79506 0.577487C4.49684 0.305793 5.29432 0.120997 6.4658 0.0659984C6.75839 0.0527987 7.00258 0.041799 7.24898 0.0329992L7.46237 0.0263993C8.26447 0.00685582 9.06679 -0.00157813 9.86912 0.00109989L12.1307 0ZM10.9999 5.49987C9.54123 5.49987 8.14232 6.07932 7.11089 7.11075C6.07947 8.14217 5.50002 9.54109 5.50002 10.9997C5.50002 12.4584 6.07947 13.8573 7.11089 14.8887C8.14232 15.9202 9.54123 16.4996 10.9999 16.4996C12.4585 16.4996 13.8575 15.9202 14.8889 14.8887C15.9203 13.8573 16.4998 12.4584 16.4998 10.9997C16.4998 9.54109 15.9203 8.14217 14.8889 7.11075C13.8575 6.07932 12.4585 5.49987 10.9999 5.49987ZM10.9999 7.69982C11.4332 7.69975 11.8624 7.78503 12.2628 7.9508C12.6632 8.11657 13.027 8.35958 13.3334 8.66596C13.6399 8.97233 13.8831 9.33607 14.049 9.73641C14.2149 10.1367 14.3003 10.5658 14.3004 10.9992C14.3004 11.4325 14.2152 11.8617 14.0494 12.2621C13.8836 12.6625 13.6406 13.0263 13.3342 13.3328C13.0279 13.6392 12.6641 13.8824 12.2638 14.0483C11.8634 14.2142 11.4343 14.2996 11.001 14.2997C10.1258 14.2997 9.28645 13.952 8.66759 13.3331C8.04874 12.7143 7.70107 11.8749 7.70107 10.9997C7.70107 10.1245 8.04874 9.2852 8.66759 8.66634C9.28645 8.04749 10.1258 7.69982 11.001 7.69982M16.7759 3.84991C16.4112 3.84991 16.0615 3.99477 15.8036 4.25263C15.5458 4.51049 15.4009 4.86021 15.4009 5.22488C15.4009 5.58954 15.5458 5.93927 15.8036 6.19713C16.0615 6.45498 16.4112 6.59985 16.7759 6.59985C17.1405 6.59985 17.4902 6.45498 17.7481 6.19713C18.006 5.93927 18.1508 5.58954 18.1508 5.22488C18.1508 4.86021 18.006 4.51049 17.7481 4.25263C17.4902 3.99477 17.1405 3.84991 16.7759 3.84991Z" fill="#F0F0ED"/>
</g>
<defs>
<clipPath id="clip0_11736_270">
<rect width="22.0006" height="22" fill="white" transform="translate(-0.000488281)"/>
</clipPath>
</defs>
</svg>
