<svg style="width:0; height:0; visibility: hidden;" xmlns="http://www.w3.org/2000/svg">
	
	<defs id="clip0_9701_1297">
		<clipPath >
			<rect width="200" height="214" fill="white" />
		</clipPath>
	</defs>
	<symbol id="svg-logo" viewBox="0 0 200 214">
		<g>
			
				<g clip-path="url(#clip0_9701_1297)">
					<path d="M86.2326 32.0396H0V167.498H86.2326V32.0396Z" fill="#D6D903" />
					<path d="M124.419 95.2351H102.651V167.498H124.419V95.2351Z" fill="#D6D903" />
					<path d="M165.07 95.2351H144.14V167.498H165.07V95.2351Z" fill="#D6D903" />
					<path d="M165.07 52.8722H102.651V88.6784H165.07V52.8722Z" fill="#4B4A4A" />
					<path d="M181.907 0H0V17.2521H181.907V167.498H199.953V17.2521V0H181.907Z"
						fill="#D6D903" />
					<path d="M165.07 32.0396H102.651V45.99H165.07V32.0396Z" fill="#D6D903" />
					<path
						d="M0 213.07V178.426H4.83721L16.4186 200.422L28 178.38H32.6512V213.023H28V186.797L18.0465 205.63H14.5581L4.65116 186.797V213.023H0V213.07Z"
						fill="#D6D903" />
					<path
						d="M55.4885 213.535C53.4885 213.535 51.5815 213.209 49.721 212.512C47.8606 211.814 46.2327 210.791 44.8373 209.35C43.3955 207.908 42.2792 206.095 41.442 203.909C40.6048 201.677 40.1396 199.026 40.1396 195.957V194.981C40.1396 192.005 40.5583 189.447 41.442 187.308C42.2792 185.169 43.442 183.402 44.8373 182.007C46.2792 180.612 47.9071 179.589 49.721 178.891C51.5815 178.24 53.4885 177.915 55.4885 177.915C57.4885 177.915 59.3955 178.24 61.2559 178.891C63.1164 179.542 64.7443 180.565 66.1396 182.007C67.5815 183.402 68.6978 185.169 69.535 187.308C70.3722 189.447 70.8373 192.005 70.8373 194.981V195.957C70.8373 199.073 70.4187 201.724 69.535 203.909C68.6978 206.141 67.535 207.955 66.1396 209.35C64.7443 210.745 63.0699 211.814 61.2559 212.512C59.3489 213.209 57.442 213.535 55.4885 213.535ZM55.4885 209.396C56.8373 209.396 58.1396 209.164 59.3955 208.652C60.6513 208.141 61.7676 207.35 62.6978 206.281C63.6745 205.211 64.4187 203.816 65.0234 202.142C65.5815 200.422 65.9071 198.375 65.9071 195.957V194.981C65.9071 192.702 65.628 190.749 65.0234 189.122C64.4652 187.494 63.6745 186.146 62.6978 185.123C61.721 184.099 60.6513 183.309 59.3955 182.797C58.1396 182.286 56.8373 182.053 55.4885 182.053C54.1396 182.053 52.8373 182.286 51.5815 182.797C50.3257 183.309 49.2094 184.053 48.2792 185.123C47.3024 186.146 46.5583 187.494 45.9536 189.122C45.3955 190.749 45.0699 192.702 45.0699 194.981V195.957C45.0699 198.375 45.349 200.422 45.9536 202.142C46.5117 203.863 47.3024 205.211 48.2792 206.281C49.2559 207.35 50.3257 208.141 51.5815 208.652C52.8373 209.164 54.1396 209.396 55.4885 209.396Z"
						fill="#4B4B4A" />
					<path
						d="M78.7441 213.07V178.426H88.8837C91.4883 178.426 93.8139 178.798 95.8604 179.496C97.9069 180.193 99.6279 181.263 101.07 182.658C102.512 184.053 103.581 185.774 104.326 187.82C105.07 189.866 105.442 192.284 105.442 195.027V196.004C105.442 198.794 105.07 201.212 104.279 203.351C103.488 205.49 102.372 207.257 100.93 208.699C99.4418 210.14 97.6744 211.21 95.5348 211.954C93.4418 212.698 91.0232 213.07 88.372 213.07H78.7441ZM83.3953 208.978H87.9069C89.8604 208.978 91.6279 208.745 93.1627 208.234C94.7441 207.722 96.0465 206.978 97.1627 205.909C98.2325 204.886 99.0697 203.537 99.6744 201.863C100.233 200.236 100.558 198.236 100.558 195.911V194.934C100.558 192.702 100.279 190.842 99.7209 189.261C99.1627 187.68 98.372 186.378 97.3023 185.355C96.2325 184.332 94.9767 183.588 93.4418 183.123C91.9534 182.658 90.279 182.425 88.4186 182.425H83.3953V208.978Z"
						fill="#4B4B4A" />
					<path
						d="M126.558 213.535C124.465 213.535 122.605 213.256 120.93 212.651C119.256 212.047 117.814 211.163 116.651 209.908C115.442 208.699 114.558 207.164 113.907 205.258C113.256 203.398 112.93 201.212 112.93 198.654V178.333H117.581V198.654C117.581 200.515 117.767 202.142 118.186 203.491C118.605 204.839 119.163 205.955 119.953 206.792C120.698 207.629 121.674 208.28 122.791 208.699C123.907 209.117 125.163 209.303 126.558 209.303C127.953 209.303 129.209 209.117 130.326 208.699C131.442 208.28 132.372 207.629 133.163 206.792C133.907 205.955 134.512 204.839 134.93 203.491C135.349 202.142 135.535 200.515 135.535 198.654V178.333H140.186V198.654C140.186 201.212 139.86 203.398 139.209 205.258C138.558 207.118 137.628 208.652 136.465 209.908C135.256 211.117 133.86 212.047 132.186 212.651C130.512 213.256 128.605 213.535 126.558 213.535Z"
						fill="#4B4B4A" />
					<path d="M149.581 213.07V178.426H154.232V209.024H171.86V213.07H149.581Z"
						fill="#4B4B4A" />
					<path
						d="M177.256 213.07V178.426H199.535V182.472H181.907V193.214H198.047V197.259H181.907V208.978H199.535V213.023H177.256V213.07Z"
						fill="#4B4B4A" />
				</g>
			
		</g>
	</symbol>
	<symbol id="svg-email" viewBox="0 0 28 28">
		<g>

			<path fill-rule="evenodd" clip-rule="evenodd"
				d="M4.28068 6.48081C4.52447 6.23701 4.85514 6.10005 5.19992 6.10005H22.8C23.1447 6.10005 23.4754 6.23701 23.7192 6.48081C23.963 6.72461 24.1 7.05527 24.1 7.40005V9.16746L16.1866 15.4984L16.1866 15.4984C15.5659 15.995 14.7948 16.2655 13.9999 16.2655C13.2051 16.2655 12.4339 15.995 11.8133 15.4984L11.8133 15.4984L3.89991 9.16746V7.40005C3.89991 7.05527 4.03688 6.72461 4.28068 6.48081ZM3.89991 11.4726V20.6001C3.89991 20.9449 4.03688 21.2755 4.28068 21.5193C4.52448 21.7631 4.85514 21.9001 5.19992 21.9001H22.8C23.1447 21.9001 23.4754 21.7631 23.7192 21.5193C23.963 21.2755 24.1 20.9449 24.1 20.6001V11.4726L17.3111 16.9039L17.3111 16.9039C16.3713 17.6558 15.2035 18.0655 13.9999 18.0655C12.7963 18.0655 11.6286 17.6558 10.6888 16.9039L10.6888 16.9039L3.89991 11.4726ZM5.19992 4.30005C4.37775 4.30005 3.58925 4.62666 3.00788 5.20802C2.42652 5.78938 2.09991 6.57788 2.09991 7.40005V20.6001C2.09991 21.4222 2.42652 22.2107 3.00788 22.7921C3.58925 23.3735 4.37775 23.7001 5.19992 23.7001H22.8C23.6221 23.7001 24.4106 23.3735 24.992 22.7921C25.5733 22.2107 25.9 21.4223 25.9 20.6001V7.40005C25.9 6.57788 25.5733 5.78938 24.992 5.20802C24.4106 4.62666 23.6221 4.30005 22.8 4.30005H5.19992Z"
				fill="currentColor" />
			
		</g>
	</symbol>
	<symbol id="svg-phone" viewBox="0 0 28 28">
		<g>
			<path fill-rule="evenodd" clip-rule="evenodd"
				d="M15.0116 2.34808C15.0956 1.80222 15.6062 1.42779 16.1521 1.51177C18.6676 1.89878 23.9924 4.49807 26.9247 11.6194C27.135 12.1301 26.8915 12.7145 26.3808 12.9248C25.8701 13.1351 25.2856 12.8916 25.0753 12.3809C22.4076 5.90221 17.6657 3.76817 15.848 3.48851C15.3021 3.40453 14.9277 2.89395 15.0116 2.34808Z"
				fill="currentColor" />
			<path fill-rule="evenodd" clip-rule="evenodd"
				d="M15.5809 6.10609C15.7984 5.59846 16.3863 5.36331 16.8939 5.58087C18.2039 6.14227 21.0842 7.99128 22.4192 11.1061C22.6367 11.6137 22.4016 12.2016 21.8939 12.4192C21.3863 12.6367 20.7984 12.4016 20.5809 11.8939C19.5158 9.40874 17.1295 7.85775 16.1061 7.41916C15.5985 7.2016 15.3633 6.61372 15.5809 6.10609Z"
				fill="currentColor" />
			<path
				d="M18.2525 18.1335L18.7833 17.5735L17.514 16.3683L16.9832 16.9295L18.2525 18.1335ZM20.5322 17.3378L22.7605 18.6223L23.6343 17.1045L21.4048 15.8212L20.5322 17.3378ZM23.191 21.2812L21.5343 23.0253L22.8025 24.2317L24.4592 22.4875L23.191 21.2812ZM20.5368 23.5853C18.8627 23.7498 14.4935 23.6098 9.75217 18.6188L8.484 19.8228C13.6512 25.263 18.5803 25.5383 20.7083 25.3272L20.5368 23.5853ZM9.75217 18.6188C5.23017 13.8577 4.47184 9.84083 4.37734 8.07916L2.62967 8.17366C2.74633 10.332 3.661 14.7455 8.484 19.8228L9.75217 18.6188ZM11.3575 10.8745L11.6912 10.5222L10.423 9.31699L10.0882 9.66932L11.3575 10.8745ZM11.9548 6.13549L10.4837 4.05649L9.0545 5.06682L10.5245 7.14699L11.9548 6.13549ZM5.50317 3.60616L3.67383 5.53582L4.94317 6.74099L6.77484 4.81249L5.50317 3.60616ZM10.7228 10.2713C10.5129 10.069 10.3009 9.86867 10.087 9.67049L10.0847 9.67282L10.0812 9.67632L10.0228 9.74399C9.9086 9.89545 9.81811 10.0634 9.7545 10.2422C9.64017 10.563 9.5795 10.9877 9.6565 11.5173C9.80817 12.558 10.4907 13.9568 12.2722 15.834L13.5415 14.6277C11.8755 12.8742 11.4648 11.795 11.3878 11.263C11.3505 11.0063 11.3878 10.8722 11.403 10.829L11.4123 10.8068L11.3797 10.85L11.3587 10.8733C11.3587 10.8733 11.3563 10.8733 10.7228 10.2713ZM12.2722 15.834C14.049 17.7053 15.3907 18.4392 16.4138 18.606C16.94 18.6912 17.3658 18.6223 17.6878 18.4952C17.8664 18.4255 18.0324 18.327 18.179 18.2035L18.221 18.1638L18.2373 18.1475L18.2455 18.1405L18.249 18.137L18.2502 18.1347C18.2502 18.1347 18.2525 18.1335 17.6178 17.5303C16.9832 16.9283 16.9843 16.9272 16.9843 16.926L16.9867 16.9248L16.989 16.9213L16.9948 16.9155L17.0065 16.9038L17.0497 16.8665C17.0613 16.8603 17.0598 16.8607 17.045 16.8677C17.0217 16.877 16.9167 16.9143 16.695 16.8782C16.226 16.8012 15.2133 16.3882 13.5415 14.6277L12.2722 15.834ZM10.4837 4.05649C9.30067 2.38349 6.93467 2.09999 5.50433 3.60732L6.77134 4.81249C7.3815 4.17082 8.45717 4.22099 9.0545 5.06682L10.4837 4.05649ZM4.37734 8.07916C4.35167 7.61249 4.55584 7.14699 4.94317 6.74099L3.67383 5.53582C3.0485 6.19382 2.5725 7.10732 2.62967 8.17366L4.37734 8.07916ZM21.5332 23.0265C21.2077 23.3695 20.8682 23.5527 20.5368 23.5853L20.7083 25.3272C21.5798 25.242 22.2857 24.7765 22.8025 24.2317L21.5332 23.0265ZM11.6912 10.5233C12.8205 9.33449 12.8998 7.47482 11.9548 6.13666L10.5257 7.14699C11.018 7.84349 10.9422 8.77099 10.423 9.31699L11.6912 10.5233ZM22.7605 18.6223C23.7183 19.1742 23.9062 20.5298 23.191 21.2823L24.4592 22.4875C25.9817 20.8845 25.5383 18.2012 23.6343 17.1045L22.7605 18.6223ZM18.7833 17.5747C19.2325 17.101 19.9337 16.9948 20.5322 17.339L21.4048 15.8223C20.1227 15.085 18.5348 15.2973 17.514 16.3707L18.7833 17.5747Z"
				fill="currentColor" />
		</g>
	</symbol>
	<symbol id="svg-left" viewBox="0 0 28 28">
		<g>
			<path fill-rule="evenodd" clip-rule="evenodd"
				d="M13.4697 5.19695C13.8212 5.54843 13.8212 6.11827 13.4697 6.46975L6.83945 13.1H23.3333C23.8304 13.1 24.2333 13.503 24.2333 14C24.2333 14.4971 23.8304 14.9 23.3333 14.9H6.83946L13.4697 21.5303C13.8212 21.8818 13.8212 22.4516 13.4697 22.8031C13.1183 23.1546 12.5484 23.1546 12.1969 22.8031L4.03027 14.6364C3.67879 14.2849 3.67879 13.7151 4.03027 13.3636L12.1969 5.19695C12.5484 4.84548 13.1183 4.84548 13.4697 5.19695Z"
				fill="currentColor" />
		</g>
	</symbol>
	<symbol id="svg-right" viewBox="0 0 28 28">
		<g>
			<path fill-rule="evenodd" clip-rule="evenodd"
				d="M14.5303 5.19695C14.8817 4.84548 15.4516 4.84548 15.8031 5.19695L23.9697 13.3636C24.3212 13.7151 24.3212 14.2849 23.9697 14.6364L15.8031 22.8031C15.4516 23.1546 14.8817 23.1546 14.5303 22.8031C14.1788 22.4516 14.1788 21.8818 14.5303 21.5303L21.1605 14.9H4.66666C4.16961 14.9 3.76666 14.4971 3.76666 14C3.76666 13.503 4.16961 13.1 4.66666 13.1H21.1605L14.5303 6.46975C14.1788 6.11827 14.1788 5.54843 14.5303 5.19695Z"
				fill="currentColor" />

		</g>
	</symbol>
	<symbol id="svg-up" viewBox="0 0 28 28">
		<g>
			<path fill-rule="evenodd" clip-rule="evenodd"
				d="M13.3636 4.03021C13.7151 3.67873 14.2849 3.67873 14.6364 4.03021L22.8031 12.1969C23.1546 12.5483 23.1546 13.1182 22.8031 13.4697C22.4516 13.8211 21.8818 13.8211 21.5303 13.4697L14.9 6.83939V23.3333C14.9 23.8303 14.4971 24.2333 14 24.2333C13.503 24.2333 13.1 23.8303 13.1 23.3333V6.83939L6.46975 13.4697C6.11827 13.8211 5.54843 13.8211 5.19695 13.4697C4.84548 13.1182 4.84548 12.5483 5.19695 12.1969L13.3636 4.03021Z"
				fill="currentColor" />

		</g>
	</symbol>
	<symbol id="svg-down" viewBox="0 0 28 28">
		<g>
			<path fill-rule="evenodd" clip-rule="evenodd"
				d="M14 3.7666C14.4971 3.7666 14.9 4.16955 14.9 4.6666V21.1605L21.5303 14.5302C21.8818 14.1787 22.4516 14.1787 22.8031 14.5302C23.1546 14.8817 23.1546 15.4515 22.8031 15.803L14.6364 23.9697C14.2849 24.3211 13.7151 24.3211 13.3636 23.9697L5.19695 15.803C4.84548 15.4515 4.84548 14.8817 5.19695 14.5302C5.54843 14.1787 6.11827 14.1787 6.46975 14.5302L13.1 21.1605V4.6666C13.1 4.16955 13.503 3.7666 14 3.7666Z"
				fill="currentColor" />

		</g>
	</symbol>
	<symbol id="svg-important" viewBox="0 0 28 28">
		<g>
			<path fill-rule="evenodd" clip-rule="evenodd"
				d="M13.9999 3.9001C8.42188 3.9001 3.89998 8.422 3.89998 14.0001C3.89998 19.5781 8.42188 24.1 13.9999 24.1C19.578 24.1 24.0999 19.5781 24.0999 14.0001C24.0999 8.422 19.578 3.9001 13.9999 3.9001ZM2.09998 14.0001C2.09998 7.42789 7.42777 2.1001 13.9999 2.1001C20.5721 2.1001 25.8999 7.42789 25.8999 14.0001C25.8999 20.5722 20.5721 25.9 13.9999 25.9C7.42777 25.9 2.09998 20.5722 2.09998 14.0001Z"
				fill="currentColor" />
			<path fill-rule="evenodd" clip-rule="evenodd"
				d="M14 7.6001C14.497 7.6001 14.9 8.00304 14.9 8.5001V15.1001C14.9 15.5971 14.497 16.0001 14 16.0001C13.5029 16.0001 13.1 15.5971 13.1 15.1001V8.5001C13.1 8.00304 13.5029 7.6001 14 7.6001ZM14 18.0501C14.497 18.0501 14.9 18.453 14.9 18.9501V19.5001C14.9 19.9971 14.497 20.4001 14 20.4001C13.5029 20.4001 13.1 19.9971 13.1 19.5001V18.9501C13.1 18.453 13.5029 18.0501 14 18.0501Z"
				fill="currentColor" />
		</g>
	</symbol>
	<symbol id="svg-filter" viewBox="0 0 28 28">
		<g>
			<path fill-rule="evenodd" clip-rule="evenodd"
				d="M5.83329 2.6001C6.33034 2.6001 6.73329 3.00304 6.73329 3.5001V5.83343C6.73329 6.33049 6.33034 6.73343 5.83329 6.73343C5.33623 6.73343 4.93329 6.33049 4.93329 5.83343V3.5001C4.93329 3.00304 5.33623 2.6001 5.83329 2.6001ZM14 2.6001C14.497 2.6001 14.9 3.00304 14.9 3.5001V17.5001C14.9 17.9972 14.497 18.4001 14 18.4001C13.5029 18.4001 13.1 17.9972 13.1 17.5001V3.5001C13.1 3.00304 13.5029 2.6001 14 2.6001ZM22.1666 2.6001C22.6637 2.6001 23.0666 3.00304 23.0666 3.5001V8.16676C23.0666 8.66382 22.6637 9.06676 22.1666 9.06676C21.6696 9.06676 21.2666 8.66382 21.2666 8.16676V3.5001C21.2666 3.00304 21.6696 2.6001 22.1666 2.6001ZM5.83329 9.6001C6.33034 9.6001 6.73329 10.003 6.73329 10.5001V24.5001C6.73329 24.9972 6.33034 25.4001 5.83329 25.4001C5.33623 25.4001 4.93329 24.9972 4.93329 24.5001V10.5001C4.93329 10.003 5.33623 9.6001 5.83329 9.6001ZM22.1666 11.9334C22.6637 11.9334 23.0666 12.3364 23.0666 12.8334V24.5001C23.0666 24.9972 22.6637 25.4001 22.1666 25.4001C21.6696 25.4001 21.2666 24.9972 21.2666 24.5001V12.8334C21.2666 12.3364 21.6696 11.9334 22.1666 11.9334ZM14 21.2668C14.497 21.2668 14.9 21.6697 14.9 22.1668V24.5001C14.9 24.9972 14.497 25.4001 14 25.4001C13.5029 25.4001 13.1 24.9972 13.1 24.5001V22.1668C13.1 21.6697 13.5029 21.2668 14 21.2668Z"
				fill="currentColor" />
			<path fill-rule="evenodd" clip-rule="evenodd"
				d="M23.6 10.5002C23.6 9.70857 22.9582 9.06685 22.1666 9.06685C21.375 9.06685 20.7333 9.70857 20.7333 10.5002C20.7333 11.2918 21.375 11.9335 22.1666 11.9335C22.9582 11.9335 23.6 11.2918 23.6 10.5002ZM22.1666 7.26685C23.9524 7.26685 25.4 8.71446 25.4 10.5002C25.4 12.2859 23.9524 13.7335 22.1666 13.7335C20.3809 13.7335 18.9333 12.2859 18.9333 10.5002C18.9333 8.71446 20.3809 7.26685 22.1666 7.26685Z"
				fill="currentColor" />
			<path fill-rule="evenodd" clip-rule="evenodd"
				d="M15.4333 19.8334C15.4333 19.0418 14.7916 18.4001 14 18.4001C13.2084 18.4001 12.5667 19.0418 12.5667 19.8334C12.5667 20.625 13.2084 21.2668 14 21.2668C14.7916 21.2668 15.4333 20.625 15.4333 19.8334ZM14 16.6001C15.7857 16.6001 17.2333 18.0477 17.2333 19.8334C17.2333 21.6192 15.7857 23.0668 14 23.0668C12.2143 23.0668 10.7667 21.6192 10.7667 19.8334C10.7667 18.0477 12.2143 16.6001 14 16.6001Z"
				fill="currentColor" />
			<path fill-rule="evenodd" clip-rule="evenodd"
				d="M7.26665 8.16668C7.26665 7.37507 6.62493 6.73335 5.83332 6.73335C5.04171 6.73335 4.39998 7.37507 4.39998 8.16668C4.39998 8.95829 5.04171 9.60002 5.83332 9.60002C6.62493 9.60002 7.26665 8.95829 7.26665 8.16668ZM5.83332 4.93335C7.61904 4.93335 9.06665 6.38096 9.06665 8.16668C9.06665 9.9524 7.61904 11.4 5.83332 11.4C4.0476 11.4 2.59998 9.9524 2.59998 8.16668C2.59998 6.38096 4.0476 4.93335 5.83332 4.93335Z"
				fill="currentColor" />
		</g>
	</symbol>
	<symbol id="svg-pin" viewBox="0 0 28 28">
		<g>
			<path fill-rule="evenodd" clip-rule="evenodd"
				d="M14 9.4001C12.6746 9.4001 11.6 10.4746 11.6 11.8001C11.6 13.1256 12.6746 14.2001 14 14.2001C15.3255 14.2001 16.4 13.1256 16.4 11.8001C16.4 10.4746 15.3255 9.4001 14 9.4001ZM9.80005 11.8001C9.80005 9.4805 11.6804 7.6001 14 7.6001C16.3196 7.6001 18.2 9.4805 18.2 11.8001C18.2 14.1197 16.3196 16.0001 14 16.0001C11.6804 16.0001 9.80005 14.1197 9.80005 11.8001Z"
				fill="currentColor" />
			<path fill-rule="evenodd" clip-rule="evenodd"
				d="M7.1411 4.94115C8.9602 3.12206 11.4274 2.1001 14 2.1001C16.5726 2.1001 19.0398 3.12206 20.8589 4.94115C22.678 6.76025 23.7 9.22747 23.7 11.8001C23.7 12.9042 23.5828 13.8667 23.2822 14.7736C22.9803 15.6844 22.5081 16.4945 21.8523 17.3129C21.8451 17.3219 21.8377 17.3308 21.8301 17.3395L14.6801 25.5895C14.5092 25.7867 14.261 25.9 14 25.9C13.739 25.9 13.4908 25.7867 13.3199 25.5895L6.16992 17.3395C6.16237 17.3308 6.15498 17.3219 6.14776 17.3129C5.49189 16.4945 5.01977 15.6844 4.71783 14.7736C4.41723 13.8667 4.30005 12.9042 4.30005 11.8001C4.30005 9.22747 5.32201 6.76025 7.1411 4.94115ZM14 3.9001C11.9048 3.9001 9.89543 4.73241 8.4139 6.21394C6.93236 7.69548 6.10005 9.70486 6.10005 11.8001C6.10005 12.7771 6.20397 13.5361 6.42641 14.2072C6.64611 14.87 6.99589 15.4906 7.54174 16.174L14 23.6258L20.4583 16.174C21.0041 15.4906 21.3539 14.87 21.5736 14.2072C21.7961 13.5361 21.9 12.7771 21.9 11.8001C21.9 9.70486 21.0677 7.69548 19.5861 6.21394C18.1046 4.73241 16.0952 3.9001 14 3.9001Z"
				fill="currentColor" />
		</g>
	</symbol>
	<symbol id="svg-search" viewBox="0 0 28 28">
		<g>
			<path fill-rule="evenodd" clip-rule="evenodd"
				d="M8.19698 3.29026C9.297 2.83461 10.476 2.6001 11.6666 2.6001C12.8573 2.6001 14.0363 2.83461 15.1363 3.29026C16.2363 3.7459 17.2358 4.41375 18.0777 5.25566C18.9197 6.09758 19.5875 7.09708 20.0431 8.1971C20.4988 9.29712 20.7333 10.4761 20.7333 11.6668C20.7333 12.8574 20.4988 14.0364 20.0431 15.1364C19.7027 15.9583 19.2439 16.724 18.6825 17.4098L25.1364 23.8637C25.4878 24.2152 25.4878 24.785 25.1364 25.1365C24.7849 25.488 24.215 25.488 23.8636 25.1365L17.4097 18.6826C16.7239 19.244 15.9581 19.7029 15.1363 20.0433C14.0363 20.4989 12.8573 20.7334 11.6666 20.7334C10.476 20.7334 9.297 20.4989 8.19698 20.0433C7.09696 19.5876 6.09746 18.9198 5.25554 18.0779C4.41362 17.2359 3.74578 16.2364 3.29013 15.1364C2.83449 14.0364 2.59998 12.8574 2.59998 11.6668C2.59998 10.4761 2.83449 9.29712 3.29013 8.1971C3.74578 7.09708 4.41362 6.09758 5.25554 5.25566C6.09746 4.41374 7.09696 3.7459 8.19698 3.29026ZM11.6666 4.4001C10.7124 4.4001 9.76744 4.58806 8.88581 4.95324C8.00418 5.31842 7.2031 5.85368 6.52833 6.52845C5.85356 7.20323 5.3183 8.0043 4.95312 8.88593C4.58793 9.76756 4.39998 10.7125 4.39998 11.6668C4.39998 12.621 4.58793 13.566 4.95312 14.4476C5.3183 15.3292 5.85356 16.1303 6.52833 16.8051C7.20311 17.4798 8.00418 18.0151 8.88581 18.3803C9.76744 18.7455 10.7124 18.9334 11.6666 18.9334C12.6209 18.9334 13.5658 18.7455 14.4475 18.3803C15.3291 18.0151 16.1302 17.4798 16.805 16.8051C17.4797 16.1303 18.015 15.3292 18.3802 14.4476C18.7453 13.566 18.9333 12.621 18.9333 11.6668C18.9333 10.7125 18.7453 9.76756 18.3802 8.88593C18.015 8.0043 17.4797 7.20323 16.805 6.52845C16.1302 5.85368 15.3291 5.31842 14.4475 4.95324C13.5658 4.58806 12.6209 4.4001 11.6666 4.4001Z"
				fill="currentColor" />

		</g>
	</symbol>
	<symbol id="svg-clock" viewBox="0 0 28 28">
		<g>
			<path
				d="M14.9688 9.98437C14.9688 9.44072 14.528 9 13.9844 9C13.4407 9 13 9.44072 13 9.98438V15.334L17.7675 18.0957C18.1862 18.3383 18.7217 18.209 18.9836 17.8021C19.2644 17.3659 19.1225 16.7835 18.6725 16.5255L14.9688 14.4016V9.98437Z"
				fill="#22231D" />
			<path fill-rule="evenodd" clip-rule="evenodd"
				d="M14 23C18.9706 23 23 18.9706 23 14C23 9.02944 18.9706 5 14 5C9.02944 5 5 9.02944 5 14C5 18.9706 9.02944 23 14 23ZM14 25C20.0751 25 25 20.0751 25 14C25 7.92487 20.0751 3 14 3C7.92487 3 3 7.92487 3 14C3 20.0751 7.92487 25 14 25Z"
				fill="#22231D" />
		</g>
	</symbol>
	<symbol id="svg-chevronRight" viewBox="0 0 8 12">
		<g>
			<path fill-rule="evenodd" clip-rule="evenodd"
				d="M1.01936 0.448024C0.793416 0.67397 0.793416 1.0403 1.01936 1.26625L5.75311 5.99999L1.01936 10.7337C0.793416 10.9597 0.793416 11.326 1.01936 11.552C1.24531 11.7779 1.61164 11.7779 1.83759 11.552L6.98044 6.4091C7.20639 6.18316 7.20639 5.81683 6.98044 5.59088L1.83759 0.448024C1.61164 0.222078 1.24531 0.222078 1.01936 0.448024Z"
				fill="currentColor" />

		</g>
	</symbol>
	<symbol id="svg-chevronLeft" viewBox="0 0 8 12">
		<g>
			<path fill-rule="evenodd" clip-rule="evenodd"
				d="M6.69475 0.448146C6.92069 0.674092 6.92069 1.04042 6.69475 1.26637L1.961 6.00011L6.69475 10.7339C6.92069 10.9598 6.92069 11.3261 6.69475 11.5521C6.4688 11.778 6.10247 11.778 5.87653 11.5521L0.733669 6.40923C0.507722 6.18328 0.507722 5.81695 0.733669 5.591L5.87653 0.448146C6.10247 0.2222 6.4688 0.2222 6.69475 0.448146Z"
				fill="currentColor" />

		</g>
	</symbol>
	<symbol id="svg-book" viewBox="0 0 20 20">
		<g>
			<path fill-rule="evenodd" clip-rule="evenodd"
				d="M6.67414 4.00001C6.41452 4.00001 6.15643 4.10964 5.95936 4.31985C5.76097 4.53147 5.64289 4.82685 5.64289 5.14287V13.6822C5.95845 13.5179 6.31046 13.4286 6.67414 13.4286H15.0715V4.00001H6.67414ZM16.3572 3.35715C16.3572 3.00211 16.0694 2.71429 15.7143 2.71429H6.67414C6.04577 2.71429 5.45222 2.98094 5.02138 3.4405C4.59186 3.89866 4.35718 4.51168 4.35718 5.14287V15.8572C4.35718 16.4883 4.59186 17.1014 5.02138 17.5595C5.45222 18.0191 6.04577 18.2857 6.67414 18.2857H15.7143C16.0694 18.2857 16.3572 17.9979 16.3572 17.6429V3.35715ZM15.0715 14.7143H6.67414C6.41452 14.7143 6.15643 14.8239 5.95936 15.0341C5.76097 15.2458 5.64289 15.5411 5.64289 15.8572C5.64289 16.1732 5.76097 16.4685 5.95936 16.6802C6.15643 16.8904 6.41452 17 6.67414 17H15.0715V14.7143ZM7.03575 6.92858C7.03575 6.57354 7.32357 6.28572 7.67861 6.28572H11.6965C12.0515 6.28572 12.3393 6.57354 12.3393 6.92858C12.3393 7.28362 12.0515 7.57144 11.6965 7.57144H7.67861C7.32357 7.57144 7.03575 7.28362 7.03575 6.92858ZM7.03575 9.78572C7.03575 9.43068 7.32357 9.14287 7.67861 9.14287H13.0357C13.3908 9.14287 13.6786 9.43068 13.6786 9.78572C13.6786 10.1408 13.3908 10.4286 13.0357 10.4286H7.67861C7.32357 10.4286 7.03575 10.1408 7.03575 9.78572Z"
				fill="currentColor" />

		</g>
	</symbol>
</svg>