<svg style="width:0; height:0; visibility: hidden;" xmlns="http://www.w3.org/2000/svg">
	
	<defs id="clip0_9701_1297">
		<clipPath >
			<rect width="200" height="214" fill="white" />
		</clipPath>
	</defs>
	<symbol id="svg-logo" viewBox="0 0 200 214">
		<g>
			
				<g clip-path="url(#clip0_9701_1297)">
				<path d="M86.2326 32.0396H0V167.498H86.2326V32.0396Z" fill="#D6D903" />
				<path d="M124.419 95.2351H102.651V167.498H124.419V95.2351Z" fill="#D6D903" />
				<path d="M165.07 95.2351H144.14V167.498H165.07V95.2351Z" fill="#D6D903" />
				<path d="M165.07 52.8722H102.651V88.6784H165.07V52.8722Z" fill="currentColor" />
				<path d="M181.907 0H0V17.2521H181.907V167.498H199.953V17.2521V0H181.907Z"
					fill="#D6D903" />
				<path d="M165.07 32.0396H102.651V45.99H165.07V32.0396Z" fill="#D6D903" />
				<path
					d="M0 213.07V178.426H4.83721L16.4186 200.422L28 178.38H32.6512V213.023H28V186.797L18.0465 205.63H14.5581L4.65116 186.797V213.023H0V213.07Z"
					fill="#D6D903" />
				<path
					d="M55.4885 213.535C53.4885 213.535 51.5815 213.209 49.721 212.512C47.8606 211.814 46.2327 210.791 44.8373 209.35C43.3955 207.908 42.2792 206.095 41.442 203.909C40.6048 201.677 40.1396 199.026 40.1396 195.957V194.981C40.1396 192.005 40.5583 189.447 41.442 187.308C42.2792 185.169 43.442 183.402 44.8373 182.007C46.2792 180.612 47.9071 179.589 49.721 178.891C51.5815 178.24 53.4885 177.915 55.4885 177.915C57.4885 177.915 59.3955 178.24 61.2559 178.891C63.1164 179.542 64.7443 180.565 66.1396 182.007C67.5815 183.402 68.6978 185.169 69.535 187.308C70.3722 189.447 70.8373 192.005 70.8373 194.981V195.957C70.8373 199.073 70.4187 201.724 69.535 203.909C68.6978 206.141 67.535 207.955 66.1396 209.35C64.7443 210.745 63.0699 211.814 61.2559 212.512C59.3489 213.209 57.442 213.535 55.4885 213.535ZM55.4885 209.396C56.8373 209.396 58.1396 209.164 59.3955 208.652C60.6513 208.141 61.7676 207.35 62.6978 206.281C63.6745 205.211 64.4187 203.816 65.0234 202.142C65.5815 200.422 65.9071 198.375 65.9071 195.957V194.981C65.9071 192.702 65.628 190.749 65.0234 189.122C64.4652 187.494 63.6745 186.146 62.6978 185.123C61.721 184.099 60.6513 183.309 59.3955 182.797C58.1396 182.286 56.8373 182.053 55.4885 182.053C54.1396 182.053 52.8373 182.286 51.5815 182.797C50.3257 183.309 49.2094 184.053 48.2792 185.123C47.3024 186.146 46.5583 187.494 45.9536 189.122C45.3955 190.749 45.0699 192.702 45.0699 194.981V195.957C45.0699 198.375 45.349 200.422 45.9536 202.142C46.5117 203.863 47.3024 205.211 48.2792 206.281C49.2559 207.35 50.3257 208.141 51.5815 208.652C52.8373 209.164 54.1396 209.396 55.4885 209.396Z"
					fill="currentColor" />
				<path
					d="M78.7441 213.07V178.426H88.8837C91.4883 178.426 93.8139 178.798 95.8604 179.496C97.9069 180.193 99.6279 181.263 101.07 182.658C102.512 184.053 103.581 185.774 104.326 187.82C105.07 189.866 105.442 192.284 105.442 195.027V196.004C105.442 198.794 105.07 201.212 104.279 203.351C103.488 205.49 102.372 207.257 100.93 208.699C99.4418 210.14 97.6744 211.21 95.5348 211.954C93.4418 212.698 91.0232 213.07 88.372 213.07H78.7441ZM83.3953 208.978H87.9069C89.8604 208.978 91.6279 208.745 93.1627 208.234C94.7441 207.722 96.0465 206.978 97.1627 205.909C98.2325 204.886 99.0697 203.537 99.6744 201.863C100.233 200.236 100.558 198.236 100.558 195.911V194.934C100.558 192.702 100.279 190.842 99.7209 189.261C99.1627 187.68 98.372 186.378 97.3023 185.355C96.2325 184.332 94.9767 183.588 93.4418 183.123C91.9534 182.658 90.279 182.425 88.4186 182.425H83.3953V208.978Z"
					fill="currentColor" />
				<path
					d="M126.558 213.535C124.465 213.535 122.605 213.256 120.93 212.651C119.256 212.047 117.814 211.163 116.651 209.908C115.442 208.699 114.558 207.164 113.907 205.258C113.256 203.398 112.93 201.212 112.93 198.654V178.333H117.581V198.654C117.581 200.515 117.767 202.142 118.186 203.491C118.605 204.839 119.163 205.955 119.953 206.792C120.698 207.629 121.674 208.28 122.791 208.699C123.907 209.117 125.163 209.303 126.558 209.303C127.953 209.303 129.209 209.117 130.326 208.699C131.442 208.28 132.372 207.629 133.163 206.792C133.907 205.955 134.512 204.839 134.93 203.491C135.349 202.142 135.535 200.515 135.535 198.654V178.333H140.186V198.654C140.186 201.212 139.86 203.398 139.209 205.258C138.558 207.118 137.628 208.652 136.465 209.908C135.256 211.117 133.86 212.047 132.186 212.651C130.512 213.256 128.605 213.535 126.558 213.535Z"
					fill="currentColor" />
				<path d="M149.581 213.07V178.426H154.232V209.024H171.86V213.07H149.581Z"
					fill="currentColor" />
				<path
					d="M177.256 213.07V178.426H199.535V182.472H181.907V193.214H198.047V197.259H181.907V208.978H199.535V213.023H177.256V213.07Z"
					fill="currentColor" />
				</g>
			
		</g>
	</symbol>
	<symbol id="svg-email" viewBox="0 0 28 28">
		<g>

			<path fill-rule="evenodd" clip-rule="evenodd"
				d="M4.28068 6.48081C4.52447 6.23701 4.85514 6.10005 5.19992 6.10005H22.8C23.1447 6.10005 23.4754 6.23701 23.7192 6.48081C23.963 6.72461 24.1 7.05527 24.1 7.40005V9.16746L16.1866 15.4984L16.1866 15.4984C15.5659 15.995 14.7948 16.2655 13.9999 16.2655C13.2051 16.2655 12.4339 15.995 11.8133 15.4984L11.8133 15.4984L3.89991 9.16746V7.40005C3.89991 7.05527 4.03688 6.72461 4.28068 6.48081ZM3.89991 11.4726V20.6001C3.89991 20.9449 4.03688 21.2755 4.28068 21.5193C4.52448 21.7631 4.85514 21.9001 5.19992 21.9001H22.8C23.1447 21.9001 23.4754 21.7631 23.7192 21.5193C23.963 21.2755 24.1 20.9449 24.1 20.6001V11.4726L17.3111 16.9039L17.3111 16.9039C16.3713 17.6558 15.2035 18.0655 13.9999 18.0655C12.7963 18.0655 11.6286 17.6558 10.6888 16.9039L10.6888 16.9039L3.89991 11.4726ZM5.19992 4.30005C4.37775 4.30005 3.58925 4.62666 3.00788 5.20802C2.42652 5.78938 2.09991 6.57788 2.09991 7.40005V20.6001C2.09991 21.4222 2.42652 22.2107 3.00788 22.7921C3.58925 23.3735 4.37775 23.7001 5.19992 23.7001H22.8C23.6221 23.7001 24.4106 23.3735 24.992 22.7921C25.5733 22.2107 25.9 21.4223 25.9 20.6001V7.40005C25.9 6.57788 25.5733 5.78938 24.992 5.20802C24.4106 4.62666 23.6221 4.30005 22.8 4.30005H5.19992Z"
				fill="currentColor" />
			
		</g>
	</symbol>
	<symbol id="svg-phone" viewBox="0 0 28 28">
		<g>
			<path fill-rule="evenodd" clip-rule="evenodd"
				d="M15.0116 2.34808C15.0956 1.80222 15.6062 1.42779 16.1521 1.51177C18.6676 1.89878 23.9924 4.49807 26.9247 11.6194C27.135 12.1301 26.8915 12.7145 26.3808 12.9248C25.8701 13.1351 25.2856 12.8916 25.0753 12.3809C22.4076 5.90221 17.6657 3.76817 15.848 3.48851C15.3021 3.40453 14.9277 2.89395 15.0116 2.34808Z"
				fill="currentColor" />
			<path fill-rule="evenodd" clip-rule="evenodd"
				d="M15.5809 6.10609C15.7984 5.59846 16.3863 5.36331 16.8939 5.58087C18.2039 6.14227 21.0842 7.99128 22.4192 11.1061C22.6367 11.6137 22.4016 12.2016 21.8939 12.4192C21.3863 12.6367 20.7984 12.4016 20.5809 11.8939C19.5158 9.40874 17.1295 7.85775 16.1061 7.41916C15.5985 7.2016 15.3633 6.61372 15.5809 6.10609Z"
				fill="currentColor" />
			<path
				d="M18.2525 18.1335L18.7833 17.5735L17.514 16.3683L16.9832 16.9295L18.2525 18.1335ZM20.5322 17.3378L22.7605 18.6223L23.6343 17.1045L21.4048 15.8212L20.5322 17.3378ZM23.191 21.2812L21.5343 23.0253L22.8025 24.2317L24.4592 22.4875L23.191 21.2812ZM20.5368 23.5853C18.8627 23.7498 14.4935 23.6098 9.75217 18.6188L8.484 19.8228C13.6512 25.263 18.5803 25.5383 20.7083 25.3272L20.5368 23.5853ZM9.75217 18.6188C5.23017 13.8577 4.47184 9.84083 4.37734 8.07916L2.62967 8.17366C2.74633 10.332 3.661 14.7455 8.484 19.8228L9.75217 18.6188ZM11.3575 10.8745L11.6912 10.5222L10.423 9.31699L10.0882 9.66932L11.3575 10.8745ZM11.9548 6.13549L10.4837 4.05649L9.0545 5.06682L10.5245 7.14699L11.9548 6.13549ZM5.50317 3.60616L3.67383 5.53582L4.94317 6.74099L6.77484 4.81249L5.50317 3.60616ZM10.7228 10.2713C10.5129 10.069 10.3009 9.86867 10.087 9.67049L10.0847 9.67282L10.0812 9.67632L10.0228 9.74399C9.9086 9.89545 9.81811 10.0634 9.7545 10.2422C9.64017 10.563 9.5795 10.9877 9.6565 11.5173C9.80817 12.558 10.4907 13.9568 12.2722 15.834L13.5415 14.6277C11.8755 12.8742 11.4648 11.795 11.3878 11.263C11.3505 11.0063 11.3878 10.8722 11.403 10.829L11.4123 10.8068L11.3797 10.85L11.3587 10.8733C11.3587 10.8733 11.3563 10.8733 10.7228 10.2713ZM12.2722 15.834C14.049 17.7053 15.3907 18.4392 16.4138 18.606C16.94 18.6912 17.3658 18.6223 17.6878 18.4952C17.8664 18.4255 18.0324 18.327 18.179 18.2035L18.221 18.1638L18.2373 18.1475L18.2455 18.1405L18.249 18.137L18.2502 18.1347C18.2502 18.1347 18.2525 18.1335 17.6178 17.5303C16.9832 16.9283 16.9843 16.9272 16.9843 16.926L16.9867 16.9248L16.989 16.9213L16.9948 16.9155L17.0065 16.9038L17.0497 16.8665C17.0613 16.8603 17.0598 16.8607 17.045 16.8677C17.0217 16.877 16.9167 16.9143 16.695 16.8782C16.226 16.8012 15.2133 16.3882 13.5415 14.6277L12.2722 15.834ZM10.4837 4.05649C9.30067 2.38349 6.93467 2.09999 5.50433 3.60732L6.77134 4.81249C7.3815 4.17082 8.45717 4.22099 9.0545 5.06682L10.4837 4.05649ZM4.37734 8.07916C4.35167 7.61249 4.55584 7.14699 4.94317 6.74099L3.67383 5.53582C3.0485 6.19382 2.5725 7.10732 2.62967 8.17366L4.37734 8.07916ZM21.5332 23.0265C21.2077 23.3695 20.8682 23.5527 20.5368 23.5853L20.7083 25.3272C21.5798 25.242 22.2857 24.7765 22.8025 24.2317L21.5332 23.0265ZM11.6912 10.5233C12.8205 9.33449 12.8998 7.47482 11.9548 6.13666L10.5257 7.14699C11.018 7.84349 10.9422 8.77099 10.423 9.31699L11.6912 10.5233ZM22.7605 18.6223C23.7183 19.1742 23.9062 20.5298 23.191 21.2823L24.4592 22.4875C25.9817 20.8845 25.5383 18.2012 23.6343 17.1045L22.7605 18.6223ZM18.7833 17.5747C19.2325 17.101 19.9337 16.9948 20.5322 17.339L21.4048 15.8223C20.1227 15.085 18.5348 15.2973 17.514 16.3707L18.7833 17.5747Z"
				fill="currentColor" />
		</g>
	</symbol>
	<symbol id="svg-left" viewBox="0 0 28 28">
		<g>
			<path fill-rule="evenodd" clip-rule="evenodd"
				d="M13.4697 5.19695C13.8212 5.54843 13.8212 6.11827 13.4697 6.46975L6.83945 13.1H23.3333C23.8304 13.1 24.2333 13.503 24.2333 14C24.2333 14.4971 23.8304 14.9 23.3333 14.9H6.83946L13.4697 21.5303C13.8212 21.8818 13.8212 22.4516 13.4697 22.8031C13.1183 23.1546 12.5484 23.1546 12.1969 22.8031L4.03027 14.6364C3.67879 14.2849 3.67879 13.7151 4.03027 13.3636L12.1969 5.19695C12.5484 4.84548 13.1183 4.84548 13.4697 5.19695Z"
				fill="currentColor" />
		</g>
	</symbol>
	<symbol id="svg-right" viewBox="0 0 28 28">
		<g>
			<path fill-rule="evenodd" clip-rule="evenodd"
				d="M14.5303 5.19695C14.8817 4.84548 15.4516 4.84548 15.8031 5.19695L23.9697 13.3636C24.3212 13.7151 24.3212 14.2849 23.9697 14.6364L15.8031 22.8031C15.4516 23.1546 14.8817 23.1546 14.5303 22.8031C14.1788 22.4516 14.1788 21.8818 14.5303 21.5303L21.1605 14.9H4.66666C4.16961 14.9 3.76666 14.4971 3.76666 14C3.76666 13.503 4.16961 13.1 4.66666 13.1H21.1605L14.5303 6.46975C14.1788 6.11827 14.1788 5.54843 14.5303 5.19695Z"
				fill="currentColor" />

		</g>
	</symbol>
	<symbol id="svg-up" viewBox="0 0 28 28">
		<g>
			<path fill-rule="evenodd" clip-rule="evenodd"
				d="M13.3636 4.03021C13.7151 3.67873 14.2849 3.67873 14.6364 4.03021L22.8031 12.1969C23.1546 12.5483 23.1546 13.1182 22.8031 13.4697C22.4516 13.8211 21.8818 13.8211 21.5303 13.4697L14.9 6.83939V23.3333C14.9 23.8303 14.4971 24.2333 14 24.2333C13.503 24.2333 13.1 23.8303 13.1 23.3333V6.83939L6.46975 13.4697C6.11827 13.8211 5.54843 13.8211 5.19695 13.4697C4.84548 13.1182 4.84548 12.5483 5.19695 12.1969L13.3636 4.03021Z"
				fill="currentColor" />

		</g>
	</symbol>
	<symbol id="svg-down" viewBox="0 0 28 28">
		<g>
			<path fill-rule="evenodd" clip-rule="evenodd"
				d="M14 3.7666C14.4971 3.7666 14.9 4.16955 14.9 4.6666V21.1605L21.5303 14.5302C21.8818 14.1787 22.4516 14.1787 22.8031 14.5302C23.1546 14.8817 23.1546 15.4515 22.8031 15.803L14.6364 23.9697C14.2849 24.3211 13.7151 24.3211 13.3636 23.9697L5.19695 15.803C4.84548 15.4515 4.84548 14.8817 5.19695 14.5302C5.54843 14.1787 6.11827 14.1787 6.46975 14.5302L13.1 21.1605V4.6666C13.1 4.16955 13.503 3.7666 14 3.7666Z"
				fill="currentColor" />

		</g>
	</symbol>
	<symbol id="svg-important" viewBox="0 0 28 28">
		<g>
			<path fill-rule="evenodd" clip-rule="evenodd"
				d="M13.9999 3.9001C8.42188 3.9001 3.89998 8.422 3.89998 14.0001C3.89998 19.5781 8.42188 24.1 13.9999 24.1C19.578 24.1 24.0999 19.5781 24.0999 14.0001C24.0999 8.422 19.578 3.9001 13.9999 3.9001ZM2.09998 14.0001C2.09998 7.42789 7.42777 2.1001 13.9999 2.1001C20.5721 2.1001 25.8999 7.42789 25.8999 14.0001C25.8999 20.5722 20.5721 25.9 13.9999 25.9C7.42777 25.9 2.09998 20.5722 2.09998 14.0001Z"
				fill="currentColor" />
			<path fill-rule="evenodd" clip-rule="evenodd"
				d="M14 7.6001C14.497 7.6001 14.9 8.00304 14.9 8.5001V15.1001C14.9 15.5971 14.497 16.0001 14 16.0001C13.5029 16.0001 13.1 15.5971 13.1 15.1001V8.5001C13.1 8.00304 13.5029 7.6001 14 7.6001ZM14 18.0501C14.497 18.0501 14.9 18.453 14.9 18.9501V19.5001C14.9 19.9971 14.497 20.4001 14 20.4001C13.5029 20.4001 13.1 19.9971 13.1 19.5001V18.9501C13.1 18.453 13.5029 18.0501 14 18.0501Z"
				fill="currentColor" />
		</g>
	</symbol>
	<symbol id="svg-filter" viewBox="0 0 28 28">
		<g>
			<path fill-rule="evenodd" clip-rule="evenodd"
				d="M5.83329 2.6001C6.33034 2.6001 6.73329 3.00304 6.73329 3.5001V5.83343C6.73329 6.33049 6.33034 6.73343 5.83329 6.73343C5.33623 6.73343 4.93329 6.33049 4.93329 5.83343V3.5001C4.93329 3.00304 5.33623 2.6001 5.83329 2.6001ZM14 2.6001C14.497 2.6001 14.9 3.00304 14.9 3.5001V17.5001C14.9 17.9972 14.497 18.4001 14 18.4001C13.5029 18.4001 13.1 17.9972 13.1 17.5001V3.5001C13.1 3.00304 13.5029 2.6001 14 2.6001ZM22.1666 2.6001C22.6637 2.6001 23.0666 3.00304 23.0666 3.5001V8.16676C23.0666 8.66382 22.6637 9.06676 22.1666 9.06676C21.6696 9.06676 21.2666 8.66382 21.2666 8.16676V3.5001C21.2666 3.00304 21.6696 2.6001 22.1666 2.6001ZM5.83329 9.6001C6.33034 9.6001 6.73329 10.003 6.73329 10.5001V24.5001C6.73329 24.9972 6.33034 25.4001 5.83329 25.4001C5.33623 25.4001 4.93329 24.9972 4.93329 24.5001V10.5001C4.93329 10.003 5.33623 9.6001 5.83329 9.6001ZM22.1666 11.9334C22.6637 11.9334 23.0666 12.3364 23.0666 12.8334V24.5001C23.0666 24.9972 22.6637 25.4001 22.1666 25.4001C21.6696 25.4001 21.2666 24.9972 21.2666 24.5001V12.8334C21.2666 12.3364 21.6696 11.9334 22.1666 11.9334ZM14 21.2668C14.497 21.2668 14.9 21.6697 14.9 22.1668V24.5001C14.9 24.9972 14.497 25.4001 14 25.4001C13.5029 25.4001 13.1 24.9972 13.1 24.5001V22.1668C13.1 21.6697 13.5029 21.2668 14 21.2668Z"
				fill="currentColor" />
			<path fill-rule="evenodd" clip-rule="evenodd"
				d="M23.6 10.5002C23.6 9.70857 22.9582 9.06685 22.1666 9.06685C21.375 9.06685 20.7333 9.70857 20.7333 10.5002C20.7333 11.2918 21.375 11.9335 22.1666 11.9335C22.9582 11.9335 23.6 11.2918 23.6 10.5002ZM22.1666 7.26685C23.9524 7.26685 25.4 8.71446 25.4 10.5002C25.4 12.2859 23.9524 13.7335 22.1666 13.7335C20.3809 13.7335 18.9333 12.2859 18.9333 10.5002C18.9333 8.71446 20.3809 7.26685 22.1666 7.26685Z"
				fill="currentColor" />
			<path fill-rule="evenodd" clip-rule="evenodd"
				d="M15.4333 19.8334C15.4333 19.0418 14.7916 18.4001 14 18.4001C13.2084 18.4001 12.5667 19.0418 12.5667 19.8334C12.5667 20.625 13.2084 21.2668 14 21.2668C14.7916 21.2668 15.4333 20.625 15.4333 19.8334ZM14 16.6001C15.7857 16.6001 17.2333 18.0477 17.2333 19.8334C17.2333 21.6192 15.7857 23.0668 14 23.0668C12.2143 23.0668 10.7667 21.6192 10.7667 19.8334C10.7667 18.0477 12.2143 16.6001 14 16.6001Z"
				fill="currentColor" />
			<path fill-rule="evenodd" clip-rule="evenodd"
				d="M7.26665 8.16668C7.26665 7.37507 6.62493 6.73335 5.83332 6.73335C5.04171 6.73335 4.39998 7.37507 4.39998 8.16668C4.39998 8.95829 5.04171 9.60002 5.83332 9.60002C6.62493 9.60002 7.26665 8.95829 7.26665 8.16668ZM5.83332 4.93335C7.61904 4.93335 9.06665 6.38096 9.06665 8.16668C9.06665 9.9524 7.61904 11.4 5.83332 11.4C4.0476 11.4 2.59998 9.9524 2.59998 8.16668C2.59998 6.38096 4.0476 4.93335 5.83332 4.93335Z"
				fill="currentColor" />
		</g>
	</symbol>
	<symbol id="svg-pin" viewBox="0 0 28 28">
		<g>
			<path fill-rule="evenodd" clip-rule="evenodd"
				d="M14 9.4001C12.6746 9.4001 11.6 10.4746 11.6 11.8001C11.6 13.1256 12.6746 14.2001 14 14.2001C15.3255 14.2001 16.4 13.1256 16.4 11.8001C16.4 10.4746 15.3255 9.4001 14 9.4001ZM9.80005 11.8001C9.80005 9.4805 11.6804 7.6001 14 7.6001C16.3196 7.6001 18.2 9.4805 18.2 11.8001C18.2 14.1197 16.3196 16.0001 14 16.0001C11.6804 16.0001 9.80005 14.1197 9.80005 11.8001Z"
				fill="currentColor" />
			<path fill-rule="evenodd" clip-rule="evenodd"
				d="M7.1411 4.94115C8.9602 3.12206 11.4274 2.1001 14 2.1001C16.5726 2.1001 19.0398 3.12206 20.8589 4.94115C22.678 6.76025 23.7 9.22747 23.7 11.8001C23.7 12.9042 23.5828 13.8667 23.2822 14.7736C22.9803 15.6844 22.5081 16.4945 21.8523 17.3129C21.8451 17.3219 21.8377 17.3308 21.8301 17.3395L14.6801 25.5895C14.5092 25.7867 14.261 25.9 14 25.9C13.739 25.9 13.4908 25.7867 13.3199 25.5895L6.16992 17.3395C6.16237 17.3308 6.15498 17.3219 6.14776 17.3129C5.49189 16.4945 5.01977 15.6844 4.71783 14.7736C4.41723 13.8667 4.30005 12.9042 4.30005 11.8001C4.30005 9.22747 5.32201 6.76025 7.1411 4.94115ZM14 3.9001C11.9048 3.9001 9.89543 4.73241 8.4139 6.21394C6.93236 7.69548 6.10005 9.70486 6.10005 11.8001C6.10005 12.7771 6.20397 13.5361 6.42641 14.2072C6.64611 14.87 6.99589 15.4906 7.54174 16.174L14 23.6258L20.4583 16.174C21.0041 15.4906 21.3539 14.87 21.5736 14.2072C21.7961 13.5361 21.9 12.7771 21.9 11.8001C21.9 9.70486 21.0677 7.69548 19.5861 6.21394C18.1046 4.73241 16.0952 3.9001 14 3.9001Z"
				fill="currentColor" />
		</g>
	</symbol>
	<symbol id="svg-search" viewBox="0 0 28 28">
		<g>
			<path fill-rule="evenodd" clip-rule="evenodd"
				d="M8.19698 3.29026C9.297 2.83461 10.476 2.6001 11.6666 2.6001C12.8573 2.6001 14.0363 2.83461 15.1363 3.29026C16.2363 3.7459 17.2358 4.41375 18.0777 5.25566C18.9197 6.09758 19.5875 7.09708 20.0431 8.1971C20.4988 9.29712 20.7333 10.4761 20.7333 11.6668C20.7333 12.8574 20.4988 14.0364 20.0431 15.1364C19.7027 15.9583 19.2439 16.724 18.6825 17.4098L25.1364 23.8637C25.4878 24.2152 25.4878 24.785 25.1364 25.1365C24.7849 25.488 24.215 25.488 23.8636 25.1365L17.4097 18.6826C16.7239 19.244 15.9581 19.7029 15.1363 20.0433C14.0363 20.4989 12.8573 20.7334 11.6666 20.7334C10.476 20.7334 9.297 20.4989 8.19698 20.0433C7.09696 19.5876 6.09746 18.9198 5.25554 18.0779C4.41362 17.2359 3.74578 16.2364 3.29013 15.1364C2.83449 14.0364 2.59998 12.8574 2.59998 11.6668C2.59998 10.4761 2.83449 9.29712 3.29013 8.1971C3.74578 7.09708 4.41362 6.09758 5.25554 5.25566C6.09746 4.41374 7.09696 3.7459 8.19698 3.29026ZM11.6666 4.4001C10.7124 4.4001 9.76744 4.58806 8.88581 4.95324C8.00418 5.31842 7.2031 5.85368 6.52833 6.52845C5.85356 7.20323 5.3183 8.0043 4.95312 8.88593C4.58793 9.76756 4.39998 10.7125 4.39998 11.6668C4.39998 12.621 4.58793 13.566 4.95312 14.4476C5.3183 15.3292 5.85356 16.1303 6.52833 16.8051C7.20311 17.4798 8.00418 18.0151 8.88581 18.3803C9.76744 18.7455 10.7124 18.9334 11.6666 18.9334C12.6209 18.9334 13.5658 18.7455 14.4475 18.3803C15.3291 18.0151 16.1302 17.4798 16.805 16.8051C17.4797 16.1303 18.015 15.3292 18.3802 14.4476C18.7453 13.566 18.9333 12.621 18.9333 11.6668C18.9333 10.7125 18.7453 9.76756 18.3802 8.88593C18.015 8.0043 17.4797 7.20323 16.805 6.52845C16.1302 5.85368 15.3291 5.31842 14.4475 4.95324C13.5658 4.58806 12.6209 4.4001 11.6666 4.4001Z"
				fill="currentColor" />

		</g>
	</symbol>
	<symbol id="svg-clock" viewBox="0 0 28 28">
		<g>
			<path
				d="M14.9688 9.98437C14.9688 9.44072 14.528 9 13.9844 9C13.4407 9 13 9.44072 13 9.98438V15.334L17.7675 18.0957C18.1862 18.3383 18.7217 18.209 18.9836 17.8021C19.2644 17.3659 19.1225 16.7835 18.6725 16.5255L14.9688 14.4016V9.98437Z"
				fill="#22231D" />
			<path fill-rule="evenodd" clip-rule="evenodd"
				d="M14 23C18.9706 23 23 18.9706 23 14C23 9.02944 18.9706 5 14 5C9.02944 5 5 9.02944 5 14C5 18.9706 9.02944 23 14 23ZM14 25C20.0751 25 25 20.0751 25 14C25 7.92487 20.0751 3 14 3C7.92487 3 3 7.92487 3 14C3 20.0751 7.92487 25 14 25Z"
				fill="#22231D" />
		</g>
	</symbol>
	<symbol id="svg-chevronRight" viewBox="0 0 8 12">
		<g>
			<path fill-rule="evenodd" clip-rule="evenodd"
				d="M1.01936 0.448024C0.793416 0.67397 0.793416 1.0403 1.01936 1.26625L5.75311 5.99999L1.01936 10.7337C0.793416 10.9597 0.793416 11.326 1.01936 11.552C1.24531 11.7779 1.61164 11.7779 1.83759 11.552L6.98044 6.4091C7.20639 6.18316 7.20639 5.81683 6.98044 5.59088L1.83759 0.448024C1.61164 0.222078 1.24531 0.222078 1.01936 0.448024Z"
				fill="currentColor" />

		</g>
	</symbol>
	<symbol id="svg-chevronLeft" viewBox="0 0 8 12">
		<g>
			<path fill-rule="evenodd" clip-rule="evenodd"
				d="M6.69475 0.448146C6.92069 0.674092 6.92069 1.04042 6.69475 1.26637L1.961 6.00011L6.69475 10.7339C6.92069 10.9598 6.92069 11.3261 6.69475 11.5521C6.4688 11.778 6.10247 11.778 5.87653 11.5521L0.733669 6.40923C0.507722 6.18328 0.507722 5.81695 0.733669 5.591L5.87653 0.448146C6.10247 0.2222 6.4688 0.2222 6.69475 0.448146Z"
				fill="currentColor" />

		</g>
	</symbol>
	<symbol id="svg-chevronDown" viewBox="0 0 12 6">
		<g>

			<path fill-rule="evenodd" clip-rule="evenodd"
				d="M1.06494 0.350756C1.26578 0.149915 1.59141 0.149915 1.79225 0.350756L6.00002 4.55853L10.2078 0.350756C10.4086 0.149915 10.7343 0.149915 10.9351 0.350756C11.1359 0.551598 11.1359 0.877225 10.9351 1.07807L6.36368 5.64949C6.16284 5.85034 5.83721 5.85034 5.63637 5.64949L1.06494 1.07807C0.864096 0.877225 0.864096 0.551598 1.06494 0.350756Z"
				fill="currentColor" />
			
		</g>
	</symbol>
	<symbol id="svg-book" viewBox="0 0 20 20">
		<g>
			<path fill-rule="evenodd" clip-rule="evenodd"
				d="M6.67414 4.00001C6.41452 4.00001 6.15643 4.10964 5.95936 4.31985C5.76097 4.53147 5.64289 4.82685 5.64289 5.14287V13.6822C5.95845 13.5179 6.31046 13.4286 6.67414 13.4286H15.0715V4.00001H6.67414ZM16.3572 3.35715C16.3572 3.00211 16.0694 2.71429 15.7143 2.71429H6.67414C6.04577 2.71429 5.45222 2.98094 5.02138 3.4405C4.59186 3.89866 4.35718 4.51168 4.35718 5.14287V15.8572C4.35718 16.4883 4.59186 17.1014 5.02138 17.5595C5.45222 18.0191 6.04577 18.2857 6.67414 18.2857H15.7143C16.0694 18.2857 16.3572 17.9979 16.3572 17.6429V3.35715ZM15.0715 14.7143H6.67414C6.41452 14.7143 6.15643 14.8239 5.95936 15.0341C5.76097 15.2458 5.64289 15.5411 5.64289 15.8572C5.64289 16.1732 5.76097 16.4685 5.95936 16.6802C6.15643 16.8904 6.41452 17 6.67414 17H15.0715V14.7143ZM7.03575 6.92858C7.03575 6.57354 7.32357 6.28572 7.67861 6.28572H11.6965C12.0515 6.28572 12.3393 6.57354 12.3393 6.92858C12.3393 7.28362 12.0515 7.57144 11.6965 7.57144H7.67861C7.32357 7.57144 7.03575 7.28362 7.03575 6.92858ZM7.03575 9.78572C7.03575 9.43068 7.32357 9.14287 7.67861 9.14287H13.0357C13.3908 9.14287 13.6786 9.43068 13.6786 9.78572C13.6786 10.1408 13.3908 10.4286 13.0357 10.4286H7.67861C7.32357 10.4286 7.03575 10.1408 7.03575 9.78572Z"
				fill="currentColor" />

		</g>
	</symbol>
	<!-- instagram -->
	<defs id="clip0_11736_270">
		<clipPath >
			<rect width="22.0006" height="22" fill="white" transform="translate(-0.000488281)" />
		</clipPath>
	</defs>
	<symbol id="svg-inst" viewBox="0 0 22 22">
		<g clip-path="url(#clip0_11736_270)">
			<path
				d="M12.1307 0C13.3681 0.00329992 13.9962 0.00989977 14.5385 0.0252994L14.7519 0.0329992C14.9983 0.041799 15.2414 0.0527987 15.5351 0.0659984C16.7055 0.120997 17.504 0.305793 18.2047 0.577487C18.9307 0.85688 19.5423 1.23527 20.1539 1.84576C20.7132 2.39563 21.146 3.06078 21.4221 3.79491C21.6938 4.49559 21.8786 5.29418 21.9336 6.46565C21.9468 6.75824 21.9578 7.00134 21.9666 7.24883L21.9732 7.46223C21.9897 8.00341 21.9963 8.6315 21.9985 9.86897L21.9996 10.6896V12.1305C22.0023 12.9328 21.9939 13.7352 21.9743 14.5373L21.9677 14.7507C21.9589 14.9981 21.9479 15.2412 21.9347 15.5338C21.8797 16.7053 21.6927 17.5028 21.4221 18.2046C21.1468 18.9391 20.7139 19.6044 20.1539 20.1537C19.6038 20.7129 18.9387 21.1456 18.2047 21.422C17.504 21.6937 16.7055 21.8785 15.5351 21.9335C15.2741 21.9458 15.013 21.9568 14.7519 21.9665L14.5385 21.9731C13.9962 21.9885 13.3681 21.9962 12.1307 21.9984L11.3101 21.9995H9.87022C9.06752 22.0023 8.26483 21.9938 7.46237 21.9742L7.24898 21.9676C6.98785 21.9577 6.72679 21.9463 6.4658 21.9335C5.29542 21.8785 4.49684 21.6937 3.79506 21.422C3.06101 21.1463 2.39613 20.7134 1.847 20.1537C1.28717 19.6041 0.853973 18.9389 0.577633 18.2046C0.305939 17.5039 0.121144 16.7053 0.0661448 15.5338C0.0538898 15.2728 0.0428899 15.0118 0.0331456 14.7507L0.0276459 14.5373C0.00737559 13.7352 -0.00179184 12.9329 0.000146405 12.1305V9.86897C-0.00292359 9.06665 0.00514375 8.26432 0.0243459 7.46223L0.0320457 7.24883C0.0408455 7.00134 0.0518452 6.75824 0.0650449 6.46565C0.120044 5.29418 0.304839 4.49669 0.576533 3.79491C0.852752 3.06002 1.28681 2.39467 1.8481 1.84576C2.39709 1.28639 3.06153 0.853566 3.79506 0.577487C4.49684 0.305793 5.29432 0.120997 6.4658 0.0659984C6.75839 0.0527987 7.00258 0.041799 7.24898 0.0329992L7.46237 0.0263993C8.26447 0.00685582 9.06679 -0.00157813 9.86912 0.00109989L12.1307 0ZM10.9999 5.49987C9.54123 5.49987 8.14232 6.07932 7.11089 7.11075C6.07947 8.14217 5.50002 9.54109 5.50002 10.9997C5.50002 12.4584 6.07947 13.8573 7.11089 14.8887C8.14232 15.9202 9.54123 16.4996 10.9999 16.4996C12.4585 16.4996 13.8575 15.9202 14.8889 14.8887C15.9203 13.8573 16.4998 12.4584 16.4998 10.9997C16.4998 9.54109 15.9203 8.14217 14.8889 7.11075C13.8575 6.07932 12.4585 5.49987 10.9999 5.49987ZM10.9999 7.69982C11.4332 7.69975 11.8624 7.78503 12.2628 7.9508C12.6632 8.11657 13.027 8.35958 13.3334 8.66596C13.6399 8.97233 13.8831 9.33607 14.049 9.73641C14.2149 10.1367 14.3003 10.5658 14.3004 10.9992C14.3004 11.4325 14.2152 11.8617 14.0494 12.2621C13.8836 12.6625 13.6406 13.0263 13.3342 13.3328C13.0279 13.6392 12.6641 13.8824 12.2638 14.0483C11.8634 14.2142 11.4343 14.2996 11.001 14.2997C10.1258 14.2997 9.28645 13.952 8.66759 13.3331C8.04874 12.7143 7.70107 11.8749 7.70107 10.9997C7.70107 10.1245 8.04874 9.2852 8.66759 8.66634C9.28645 8.04749 10.1258 7.69982 11.001 7.69982M16.7759 3.84991C16.4112 3.84991 16.0615 3.99477 15.8036 4.25263C15.5458 4.51049 15.4009 4.86021 15.4009 5.22488C15.4009 5.58954 15.5458 5.93927 15.8036 6.19713C16.0615 6.45498 16.4112 6.59985 16.7759 6.59985C17.1405 6.59985 17.4902 6.45498 17.7481 6.19713C18.006 5.93927 18.1508 5.58954 18.1508 5.22488C18.1508 4.86021 18.006 4.51049 17.7481 4.25263C17.4902 3.99477 17.1405 3.84991 16.7759 3.84991Z"
				fill="currentColor" />
		</g>
		
	</symbol>
	<symbol id="svg-whatsapp" viewBox="0 0 22 22">
		<g>
			<path fill-rule="evenodd" clip-rule="evenodd"
				d="M11.0006 0.523926C5.2146 0.523926 0.524414 5.21412 0.524414 11.0001C0.524414 12.9801 1.07441 14.8344 2.03089 16.4142L1.09641 19.5906C1.04276 19.773 1.03923 19.9664 1.08619 20.1506C1.13316 20.3348 1.22888 20.503 1.3633 20.6374C1.49773 20.7718 1.66588 20.8676 1.85009 20.9145C2.0343 20.9615 2.22776 20.958 2.41013 20.9043L5.58651 19.9698C7.21947 20.9577 9.0921 21.4787 11.0006 21.4763C16.7866 21.4763 21.4768 16.7861 21.4768 11.0001C21.4768 5.21412 16.7866 0.523926 11.0006 0.523926ZM8.63089 13.3709C10.7502 15.4892 12.7732 15.7689 13.4877 15.7951C14.574 15.8349 15.6321 15.0052 16.0438 14.0424C16.0954 13.9225 16.114 13.7911 16.0978 13.6616C16.0816 13.5322 16.0311 13.4094 15.9517 13.3059C15.3776 12.5726 14.6013 12.0456 13.8428 11.5218C13.6845 11.4121 13.4898 11.368 13.2997 11.3989C13.1096 11.4297 12.9389 11.5332 12.8235 11.6874L12.1949 12.6459C12.1617 12.6973 12.1102 12.734 12.0509 12.7488C11.9915 12.7636 11.9288 12.7553 11.8754 12.7255C11.449 12.4814 10.8277 12.0666 10.3815 11.6203C9.93518 11.174 9.54546 10.5811 9.32651 10.1819C9.30002 10.1311 9.29254 10.0724 9.3054 10.0166C9.31827 9.96068 9.35064 9.91122 9.3967 9.87707L10.3647 9.1584C10.5032 9.03855 10.5927 8.87178 10.6159 8.69006C10.6391 8.50834 10.5944 8.32446 10.4904 8.17364C10.0211 7.4864 9.47422 6.61269 8.68118 6.03335C8.57861 5.95966 8.45875 5.91371 8.33321 5.89994C8.20767 5.88618 8.0807 5.90507 7.96461 5.95478C7.0008 6.36754 6.16689 7.42564 6.2067 8.51412C6.23289 9.22859 6.5126 11.2515 8.63089 13.3709Z"
				fill="currentColor" />
		</g>
	</symbol>
	<symbol id="svg-telegram" viewBox="0 0 27 22">
		<g>
			<path
				d="M24.2573 0.250043L0.868144 9.22595C-0.0730771 9.64395 -0.391424 10.481 0.640651 10.9353L6.64098 12.833L21.149 3.90997C21.9412 3.3498 22.7521 3.49917 22.0543 4.11539L9.59385 15.3431L9.20245 20.0946C9.56498 20.8282 10.2288 20.8316 10.6522 20.467L14.0996 17.2208L20.0037 21.6206C21.3751 22.4285 22.1212 21.9072 22.4163 20.4264L26.2889 2.17754C26.6909 0.354797 26.0053 -0.448321 24.2573 0.250043Z"
				fill="currentColor" />
		</g>
	</symbol>
	
	<symbol id="svg-bar"  viewBox="0 0 22 22">
		<g>
			<path fill-rule="evenodd" clip-rule="evenodd"
				d="M2.04286 5.5C2.04286 5.10945 2.35946 4.79285 2.75 4.79285H19.25C19.6405 4.79285 19.9571 5.10945 19.9571 5.5C19.9571 5.89054 19.6405 6.20714 19.25 6.20714H2.75C2.35946 6.20714 2.04286 5.89054 2.04286 5.5ZM2.04286 11C2.04286 10.6095 2.35946 10.2929 2.75 10.2929H13.75C14.1405 10.2929 14.4571 10.6095 14.4571 11C14.4571 11.3905 14.1405 11.7071 13.75 11.7071H2.75C2.35946 11.7071 2.04286 11.3905 2.04286 11ZM2.04286 16.5C2.04286 16.1095 2.35946 15.7929 2.75 15.7929H19.25C19.6405 15.7929 19.9571 16.1095 19.9571 16.5C19.9571 16.8905 19.6405 17.2071 19.25 17.2071H2.75C2.35946 17.2071 2.04286 16.8905 2.04286 16.5Z"
				fill="currentColor" />
		</g>
	</symbol>
	<symbol id="svg-cross" viewBox="0 0 16 16">
		<g>

			<path
				d="M1.53033 0.469673C1.23744 0.17678 0.762563 0.17678 0.46967 0.469673C0.176777 0.762566 0.176777 1.23744 0.46967 1.53033L1.53033 0.469673ZM14.4697 15.5303C14.7626 15.8232 15.2374 15.8232 15.5303 15.5303C15.8232 15.2374 15.8232 14.7626 15.5303 14.4697L14.4697 15.5303ZM0.469697 14.4697C0.176804 14.7626 0.176804 15.2374 0.469697 15.5303C0.76259 15.8232 1.23746 15.8232 1.53036 15.5303L0.469697 14.4697ZM15.5304 1.53033C15.8232 1.23744 15.8232 0.762563 15.5304 0.46967C15.2375 0.176777 14.7626 0.176777 14.4697 0.46967L15.5304 1.53033ZM8.00003 8L7.4697 7.46967L8.00003 8ZM0.46967 1.53033L14.4697 15.5303L15.5303 14.4697L1.53033 0.469673L0.46967 1.53033ZM1.53036 15.5303L8.53036 8.53033L7.4697 7.46967L0.469697 14.4697L1.53036 15.5303ZM8.53036 8.53033L15.5304 1.53033L14.4697 0.46967L7.4697 7.46967L8.53036 8.53033Z"
				fill="currentColor" />

		</g>
	</symbol>

	<!-- product-icons -->
	<symbol id="svg-blocks" viewBox="0 0 22 22">
		<g>
			<path fill-rule="evenodd" clip-rule="evenodd"
				d="M20.7345 4.11477C20.9823 4.25383 21.1357 4.51582 21.1357 4.79994V13.5999C21.1357 13.8721 20.9948 14.1249 20.7633 14.2681L8.96334 21.5681C8.72218 21.7173 8.41934 21.725 8.17094 21.5882L1.27094 17.7882C1.02008 17.65 0.864258 17.3863 0.864258 17.0999V8.29994C0.864258 8.02363 1.00939 7.76763 1.24648 7.62574C1.48358 7.48384 1.77777 7.47692 2.02128 7.60749L8.52478 11.0949L19.9407 4.12922C20.1833 3.98123 20.4868 3.97571 20.7345 4.11477ZM7.76426 12.4702L2.43569 9.61281V16.6357L7.76426 19.5702V12.4702ZM9.33569 19.4899L19.5643 13.1621V6.19978L9.33569 12.4409V19.4899Z"
				fill="currentColor" />
			<path fill-rule="evenodd" clip-rule="evenodd"
				d="M13.1425 0.328271C13.3844 0.181529 13.6864 0.176126 13.9334 0.314125L20.7334 4.11412C20.9772 4.25036 21.1303 4.50576 21.1357 4.78497C21.1364 4.82366 21.1343 4.862 21.1295 4.89973C21.1336 4.93257 21.1358 4.96604 21.1358 5.00001V13.1C21.1358 13.5339 20.784 13.8857 20.3501 13.8857C19.9162 13.8857 19.5644 13.5339 19.5644 13.1V6.19986L17.2358 7.62068V16C17.2358 16.4339 16.884 16.7857 16.4501 16.7857C16.0162 16.7857 15.6644 16.4339 15.6644 16V8.57952L13.2358 10.0614V18.4C13.2358 18.8339 12.884 19.1857 12.4501 19.1857C12.0161 19.1857 11.6644 18.8339 11.6644 18.4V11.0202L9.3358 12.441V20.2C9.3358 20.6339 8.98403 20.9857 8.55009 20.9857C8.11615 20.9857 7.76437 20.6339 7.76437 20.2V12C7.76437 11.7261 7.90702 11.472 8.14084 11.3293L18.7928 4.82981L13.5663 1.90917L5.05766 7.07175C4.68667 7.29684 4.20344 7.17857 3.97835 6.80758C3.75325 6.43659 3.87152 5.95337 4.24252 5.72827L13.1425 0.328271Z"
				fill="currentColor" />
		</g>
	 </symbol>
	<symbol id="svg-bruschatka" viewBox="0 0 22 22">
		<g>
			<path fill-rule="evenodd" clip-rule="evenodd"
				d="M0.214355 9.61903C0.214355 9.18509 0.566132 8.83331 1.00007 8.83331H6.71435C7.14829 8.83331 7.50007 9.18509 7.50007 9.61903V20.0952C7.50007 20.5292 7.14829 20.8809 6.71435 20.8809H1.00007C0.566132 20.8809 0.214355 20.5292 0.214355 20.0952V9.61903ZM1.78578 10.4047V19.3095H5.92864V10.4047H1.78578Z"
				fill="currentColor" />
			<path fill-rule="evenodd" clip-rule="evenodd"
				d="M5.92871 1.99998C5.92871 1.56604 6.28049 1.21426 6.71443 1.21426H12.4287C12.8626 1.21426 13.2144 1.56604 13.2144 1.99998V14.3809C13.2144 14.8149 12.8626 15.1666 12.4287 15.1666H6.71443C6.28049 15.1666 5.92871 14.8149 5.92871 14.3809V1.99998ZM7.50014 2.78569V13.5952H11.643V2.78569H7.50014Z"
				fill="currentColor" />
			<path fill-rule="evenodd" clip-rule="evenodd"
				d="M5.92871 14.3809C5.92871 13.947 6.28049 13.5952 6.71443 13.5952H17.1906C17.6246 13.5952 17.9763 13.947 17.9763 14.3809V20.0952C17.9763 20.5292 17.6246 20.8809 17.1906 20.8809H6.71443C6.28049 20.8809 5.92871 20.5292 5.92871 20.0952V14.3809ZM7.50014 15.1666V19.3095H16.4049V15.1666H7.50014Z"
				fill="currentColor" />
			<path fill-rule="evenodd" clip-rule="evenodd"
				d="M15.4523 8.66663C15.4523 8.2327 15.8041 7.88092 16.238 7.88092H21C21.4339 7.88092 21.7857 8.2327 21.7857 8.66663V14.3809C21.7857 14.8149 21.4339 15.1666 21 15.1666H11.4761C11.0422 15.1666 10.6904 14.8149 10.6904 14.3809C10.6904 13.947 11.0422 13.5952 11.4761 13.5952H20.2142V9.45235H16.238C15.8041 9.45235 15.4523 9.10057 15.4523 8.66663Z"
				fill="currentColor" />
		</g>
	</symbol>
	<symbol id="svg-isolyacia" viewBox="0 0 22 22">
		<g>
			<path fill-rule="evenodd" clip-rule="evenodd"
				d="M14.0853 1.00001C14.0853 0.566071 14.4371 0.214294 14.871 0.214294H21.0001C21.434 0.214294 21.7858 0.566071 21.7858 1.00001V2.26985C21.7858 2.70379 21.434 3.05556 21.0001 3.05556C20.5661 3.05556 20.2144 2.70379 20.2144 2.26985V1.78572H15.6568V20.2143H20.2144V5.86773C20.2144 5.4338 20.5661 5.08202 21.0001 5.08202C21.434 5.08202 21.7858 5.4338 21.7858 5.86773V21C21.7858 21.4339 21.434 21.7857 21.0001 21.7857H14.871C14.4371 21.7857 14.0853 21.4339 14.0853 21V1.00001ZM6.26936 4.36176L5.62373 4.80953L4.9811 4.35746C5.12877 4.14753 5.36968 4.02297 5.62635 4.02382C5.88302 4.02468 6.12308 4.15085 6.26936 4.36176ZM5.61818 6.22017C5.25114 6.7765 4.76515 7.53399 4.25514 8.38725C4.0325 8.75973 3.55007 8.88119 3.1776 8.65856C2.80513 8.43592 2.68366 7.95349 2.90629 7.58102C3.45159 6.66873 3.96907 5.86466 4.35018 5.28867C4.54088 5.00047 4.69777 4.76885 4.80736 4.60876C4.86217 4.5287 4.90517 4.46649 4.93468 4.42399L4.96863 4.37525L4.97763 4.3624L4.9811 4.35746C4.98112 4.35742 4.9811 4.35746 5.62373 4.80953C6.26936 4.36176 6.26928 4.36164 6.26936 4.36176L6.27347 4.3677L6.28417 4.38321L6.32445 4.44198C6.35942 4.49317 6.41026 4.56801 6.4747 4.66398C6.60356 4.85588 6.78695 5.13249 7.00672 5.47367C7.44579 6.15532 8.03232 7.09823 8.61999 8.14059C9.20631 9.18055 9.80131 10.3328 10.2519 11.4309C10.6935 12.5074 11.0331 13.6176 11.0331 14.545C11.0331 17.5304 8.62641 19.881 5.62373 19.881C2.62104 19.881 0.214355 17.5304 0.214355 14.545C0.214355 13.5573 0.467568 12.6044 0.917344 11.4978C1.08074 11.0958 1.53908 10.9024 1.94108 11.0658C2.34308 11.2292 2.53651 11.6875 2.37312 12.0895C1.96268 13.0993 1.78578 13.8396 1.78578 14.545C1.78578 16.6389 3.46512 18.3095 5.62373 18.3095C7.78233 18.3095 9.46167 16.6389 9.46167 14.545C9.46167 13.938 9.22331 13.064 8.79802 12.0274C8.38162 11.0125 7.82072 9.92264 7.25112 8.91234C6.68288 7.90443 6.11349 6.98888 5.68563 6.32463C5.66273 6.28907 5.64023 6.25424 5.61818 6.22017Z"
				fill="currentColor" />
			<path fill-rule="evenodd" clip-rule="evenodd"
				d="M14.4698 6.90803L20.4698 1.42023L21.5304 2.57979L15.5304 8.06759L14.4698 6.90803ZM14.4641 13.1694L20.4641 7.57183L21.5361 8.72086L15.5361 14.3184L14.4641 13.1694ZM14.4641 19.4255L20.4641 13.8279L21.5361 14.977L15.5361 20.5745L14.4641 19.4255Z"
				fill="currentColor" />
		</g>
	</symbol>
	<symbol id="svg-kamin" viewBox="0 0 22 22">
		<g>
			<path fill-rule="evenodd" clip-rule="evenodd"
				d="M7.12908 8.15518C8.11411 7.56814 9.38321 7.21429 11.0001 7.21429C12.6169 7.21429 13.886 7.56814 14.8711 8.15518C15.8565 8.74249 16.5119 9.53593 16.9432 10.3435C17.786 11.9219 17.7858 13.5819 17.7858 13.9922V14C17.7858 14.4339 17.434 14.7857 17.0001 14.7857H5.00007C4.56613 14.7857 4.21436 14.4339 4.21436 14L4.21436 13.9922C4.21432 13.5819 4.21417 11.9219 5.05698 10.3435C5.48823 9.53593 6.1436 8.74249 7.12908 8.15518ZM5.82434 13.2143H16.1758C16.1151 12.6302 15.9589 11.8364 15.557 11.0837C15.2382 10.4868 14.7686 9.92344 14.0666 9.50507C13.3641 9.08643 12.3832 8.78572 11.0001 8.78572C9.61693 8.78572 8.63603 9.08643 7.93356 9.50507C7.23154 9.92344 6.76191 10.4868 6.44316 11.0837C6.04124 11.8364 5.88504 12.6302 5.82434 13.2143Z"
				fill="currentColor" />
			<path fill-rule="evenodd" clip-rule="evenodd"
				d="M0.214355 2.00001C0.214355 1.56607 0.566132 1.21429 1.00007 1.21429H21.0001C21.434 1.21429 21.7858 1.56607 21.7858 2.00001V20C21.7858 20.4339 21.434 20.7857 21.0001 20.7857H5.5715C5.13756 20.7857 4.78578 20.4339 4.78578 20C4.78578 19.5661 5.13756 19.2143 5.5715 19.2143H20.2144V2.78572H1.78578V20C1.78578 20.4339 1.43401 20.7857 1.00007 20.7857C0.566132 20.7857 0.214355 20.4339 0.214355 20V2.00001Z"
				fill="currentColor" />
		</g>
	</symbol>
	<symbol id="svg-kirpich" viewBox="0 0 22 22">
		<g>
			<path fill-rule="evenodd" clip-rule="evenodd"
				d="M1.21436 1.99999C1.21436 1.56606 1.56613 1.21428 2.00007 1.21428H20.4609C20.8949 1.21428 21.2467 1.56606 21.2467 1.99999V20.4609C21.2467 20.8948 20.8949 21.2466 20.4609 21.2466H5.92181C5.48787 21.2466 5.13609 20.8948 5.13609 20.4609C5.13609 20.0269 5.48787 19.6751 5.92181 19.6751H13.5535V15.1248H2.78578V20.4609C2.78578 20.8948 2.43401 21.2466 2.00007 21.2466C1.56613 21.2466 1.21436 20.8948 1.21436 20.4609V1.99999ZM2.78578 8.90745V13.5534H7.33609V8.90745H2.78578ZM2.78578 7.33602V2.78571H13.5535V7.33602H2.78578ZM8.90752 8.90745V13.5534H19.6752V8.90745H8.90752ZM15.1249 7.33602H19.6752V2.78571H15.1249V7.33602ZM19.6752 15.1248H15.1249V19.6751H19.6752V15.1248Z"
				fill="currentColor" />
		</g>
	</symbol>
	<symbol id="svg-krovlya" viewBox="0 0 22 22">
		<g>
			<path fill-rule="evenodd" clip-rule="evenodd"
				d="M11.052 1.2143C11.3373 1.2149 11.5999 1.37017 11.738 1.6199L20.2144 16.9544V6.83572H17.181C16.747 6.83572 16.3953 6.48395 16.3953 6.05001C16.3953 5.61607 16.747 5.26429 17.181 5.26429H21.0001C21.434 5.26429 21.7858 5.61607 21.7858 6.05001V20C21.7858 20.3584 21.5433 20.6713 21.1963 20.7608C20.8494 20.8503 20.4858 20.6937 20.3124 20.3801L11.0469 3.6179L8.11756 8.86429H11.0503C11.4843 8.86429 11.836 9.21607 11.836 9.65001C11.836 10.0839 11.4843 10.4357 11.0503 10.4357H7.24015L5.22811 14.0393H14.0654C14.4993 14.0393 14.8511 14.3911 14.8511 14.825C14.8511 15.2589 14.4993 15.6107 14.0654 15.6107H4.35071L2.33866 19.2143H16.4775C16.9114 19.2143 17.2632 19.5661 17.2632 20C17.2632 20.4339 16.9114 20.7857 16.4775 20.7857H1.00007C0.721377 20.7857 0.463538 20.6381 0.322461 20.3977C0.181385 20.1574 0.178183 19.8603 0.314047 19.617L5.9546 9.51474C5.98563 9.33592 6.07711 9.17783 6.20722 9.0623L10.3643 1.61697C10.5034 1.36783 10.7667 1.21369 11.052 1.2143Z"
				fill="currentColor" />
		</g>
	</symbol>
	<symbol id="svg-materials" viewBox="0 0 22 22">
		<g>
			<path fill-rule="evenodd" clip-rule="evenodd"
				d="M2.27002 2.23228C1.93138 2.49477 1.78578 2.80237 1.78578 3.08093V16.9191C1.78578 17.1976 1.93138 17.5052 2.27002 17.7677C2.6089 18.0304 3.10763 18.2143 3.68463 18.2143H7.44302C7.87696 18.2143 8.22874 18.5661 8.22874 19C8.22874 19.4339 7.87696 19.7857 7.44302 19.7857H3.68463C2.78513 19.7857 1.94158 19.5014 1.3073 19.0097C0.672783 18.5179 0.214355 17.785 0.214355 16.9191V3.08093C0.214355 2.21499 0.672783 1.48212 1.3073 0.990283C1.94158 0.498624 2.78513 0.214294 3.68463 0.214294H18.3155C19.215 0.214294 20.0586 0.498624 20.6928 0.990283C21.3274 1.48212 21.7858 2.21499 21.7858 3.08093V16.9191C21.7858 17.785 21.3274 18.5179 20.6928 19.0097C20.0586 19.5014 19.215 19.7857 18.3155 19.7857H13.6847C13.2507 19.7857 12.8989 19.4339 12.8989 19C12.8989 18.5661 13.2507 18.2143 13.6847 18.2143H18.3155C18.8925 18.2143 19.3912 18.0304 19.7301 17.7677C20.0688 17.5052 20.2144 17.1976 20.2144 16.9191V3.08093C20.2144 2.80237 20.0688 2.49477 19.7301 2.23228C19.3912 1.9696 18.8925 1.78572 18.3155 1.78572H3.68463C3.10763 1.78572 2.6089 1.9696 2.27002 2.23228Z"
				fill="currentColor" />
			<path fill-rule="evenodd" clip-rule="evenodd"
				d="M11.0001 10.2143C11.434 10.2143 11.7858 10.5661 11.7858 11V15.022H13.0001C13.434 15.022 13.7858 15.3738 13.7858 15.8077V21C13.7858 21.4339 13.434 21.7857 13.0001 21.7857C12.5661 21.7857 12.2144 21.4339 12.2144 21V16.5934H11.0001C10.5661 16.5934 10.2144 16.2416 10.2144 15.8077V11C10.2144 10.5661 10.5661 10.2143 11.0001 10.2143Z"
				fill="currentColor" />
			<path fill-rule="evenodd" clip-rule="evenodd"
				d="M10.9501 3.51434C11.2338 3.51434 11.4955 3.66728 11.6347 3.91448L16.5347 12.6145C16.6717 12.8578 16.6694 13.1555 16.5285 13.3965C16.3876 13.6376 16.1293 13.7858 15.8501 13.7858H6.05012C5.77091 13.7858 5.51267 13.6376 5.37177 13.3965C5.23088 13.1555 5.2285 12.8578 5.36552 12.6145L10.2655 3.91448C10.4047 3.66729 10.6664 3.51434 10.9501 3.51434ZM10.9501 5.90115L7.39441 12.2143H14.5058L10.9501 5.90115Z"
				fill="currentColor" />
		</g>
	</symbol>
	<symbol id="svg-tepisolyacia" viewBox="0 0 22 22">
		<g>
			<path
				d="M1.25 1V20.1M8.65 2.7L11.65 5.3M11.65 5.3L8.65 7.8M11.65 5.3H4.55M8.65 13.6L11.65 16.1M11.65 16.1L8.65 18.7M11.65 16.1H4.55M15.05 20V1.1H20.75V20H18.15"
				stroke="currentColor" stroke-width="2" stroke-miterlimit="10" stroke-linecap="round"
				stroke-linejoin="round" />
			<path d="M15.05 5.90002H20.75M15.05 10.5H20.75M15.05 15.2H20.75" stroke="currentColor"
				stroke-width="2" stroke-miterlimit="10" />
		</g>
	</symbol>
	<symbol id="svg-plus" viewBox="0 0 15 15">
		<g>
			<path fill-rule="evenodd" clip-rule="evenodd"
				d="M0.492676 7.00006C0.492676 3.13003 3.62978 -0.00708008 7.49982 -0.00708008C11.3699 -0.00708008 14.507 3.13003 14.507 7.00006C14.507 10.8701 11.3699 14.0072 7.49982 14.0072C3.62978 14.0072 0.492676 10.8701 0.492676 7.00006ZM7.49982 1.15006C4.26886 1.15006 1.64982 3.7691 1.64982 7.00006C1.64982 10.231 4.26886 12.8501 7.49982 12.8501C10.7308 12.8501 13.3498 10.231 13.3498 7.00006C13.3498 3.7691 10.7308 1.15006 7.49982 1.15006ZM7.49982 3.20721C7.81936 3.20721 8.07839 3.46624 8.07839 3.78578V6.42149H10.7141C11.0336 6.42149 11.2927 6.68053 11.2927 7.00006C11.2927 7.3196 11.0336 7.57863 10.7141 7.57863H8.07839V10.2143C8.07839 10.5339 7.81936 10.7929 7.49982 10.7929C7.18028 10.7929 6.92125 10.5339 6.92125 10.2143V7.57863H4.28553C3.966 7.57863 3.70696 7.3196 3.70696 7.00006C3.70696 6.68053 3.966 6.42149 4.28553 6.42149H6.92125V3.78578C6.92125 3.46624 7.18028 3.20721 7.49982 3.20721Z"
				fill="currentColor" />
		</g>
	</symbol>
</svg>