<svg width="22" height="22" viewBox="0 0 22 22" fill="none" xmlns="http://www.w3.org/2000/svg">
<path fill-rule="evenodd" clip-rule="evenodd" d="M11.0006 0.523926C5.2146 0.523926 0.524414 5.21412 0.524414 11.0001C0.524414 12.9801 1.07441 14.8344 2.03089 16.4142L1.09641 19.5906C1.04276 19.773 1.03923 19.9664 1.08619 20.1506C1.13316 20.3348 1.22888 20.503 1.3633 20.6374C1.49773 20.7718 1.66588 20.8676 1.85009 20.9145C2.0343 20.9615 2.22776 20.958 2.41013 20.9043L5.58651 19.9698C7.21947 20.9577 9.0921 21.4787 11.0006 21.4763C16.7866 21.4763 21.4768 16.7861 21.4768 11.0001C21.4768 5.21412 16.7866 0.523926 11.0006 0.523926ZM8.63089 13.3709C10.7502 15.4892 12.7732 15.7689 13.4877 15.7951C14.574 15.8349 15.6321 15.0052 16.0438 14.0424C16.0954 13.9225 16.114 13.7911 16.0978 13.6616C16.0816 13.5322 16.0311 13.4094 15.9517 13.3059C15.3776 12.5726 14.6013 12.0456 13.8428 11.5218C13.6845 11.4121 13.4898 11.368 13.2997 11.3989C13.1096 11.4297 12.9389 11.5332 12.8235 11.6874L12.1949 12.6459C12.1617 12.6973 12.1102 12.734 12.0509 12.7488C11.9915 12.7636 11.9288 12.7553 11.8754 12.7255C11.449 12.4814 10.8277 12.0666 10.3815 11.6203C9.93518 11.174 9.54546 10.5811 9.32651 10.1819C9.30002 10.1311 9.29254 10.0724 9.3054 10.0166C9.31827 9.96068 9.35064 9.91122 9.3967 9.87707L10.3647 9.1584C10.5032 9.03855 10.5927 8.87178 10.6159 8.69006C10.6391 8.50834 10.5944 8.32446 10.4904 8.17364C10.0211 7.4864 9.47422 6.61269 8.68118 6.03335C8.57861 5.95966 8.45875 5.91371 8.33321 5.89994C8.20767 5.88618 8.0807 5.90507 7.96461 5.95478C7.0008 6.36754 6.16689 7.42564 6.2067 8.51412C6.23289 9.22859 6.5126 11.2515 8.63089 13.3709Z" fill="#6D6C5E"/>
</svg>
